<?xml version="1.0" encoding="UTF-8"?>
<svg version="1.1" xmlns="http://www.w3.org/2000/svg" width="500" height="500">
<path d="M0 0 C2.6875 2.75 2.6875 2.75 5 6 C6.2065625 7.2065625 6.2065625 7.2065625 7.4375 8.4375 C8.283125 9.283125 9.12875 10.12875 10 11 C10.54398437 11.51175781 11.08796875 12.02351563 11.6484375 12.55078125 C14.58820722 15.55265878 16.39636403 17.7655933 16.5 22.0625 C16.38539749 23.71277616 16.20988032 25.3591175 16 27 C15.8453125 28.216875 15.690625 29.43375 15.53125 30.6875 C15.0589972 34.13216752 14.54701322 37.56651522 14 41 C15.2065625 41.43699219 15.2065625 41.43699219 16.4375 41.8828125 C19.53556634 43.23349386 19.61134462 44.04910732 21 47 C21.86625 47.598125 22.7325 48.19625 23.625 48.8125 C26 51 26 51 26.5625 54.4375 C25.87326699 58.8026424 25.43965557 60.18573635 22 63 C18.05477503 64.30633114 14.07755516 65.21141622 10 66 C9.32603699 69.56115958 8.66212182 73.12412141 8 76.6875 C7.80921875 77.69490234 7.6184375 78.70230469 7.421875 79.74023438 C7.15117188 81.20493164 7.15117188 81.20493164 6.875 82.69921875 C6.70742188 83.59471436 6.53984375 84.49020996 6.3671875 85.4128418 C6.00282018 87.98012932 5.93471193 90.41092013 6 93 C10.36923562 86.54809541 13.05403033 80.4207983 15.04296875 72.8828125 C16.01113888 69.96644697 16.8478154 68.18256838 19 66 C21.99346119 64.87324775 24.82470344 64.66900619 28 65 C30.75 67.125 30.75 67.125 33 70 C33.9075 70.86625 34.815 71.7325 35.75 72.625 C38 75 38 75 39 78 C39.99 78.66 40.98 79.32 42 80 C44.01475301 93.60688267 41.00077184 103.09193298 33.36328125 114.4296875 C28.50651377 120.6623431 20.85994609 125.62185916 13 127 C5.56169187 127.55256003 -0.19631137 127.037361 -7 124 C-8.9656778 123.16724284 -8.9656778 123.16724284 -11 123 C-12.74075589 123.98999672 -12.74075589 123.98999672 -14.375 125.5625 C-27.13761942 135.72532658 -44.99182977 139.47091779 -61 138 C-65.14433569 137.09786888 -69.05897866 135.77109067 -72.99609375 134.20703125 C-75.99835933 133.89685566 -77.12818867 135.26353151 -79.4375 137.125 C-90.79963432 145.56640737 -104.0936597 148.45315342 -118 147 C-121.08835832 146.14431981 -123.86002612 145.1173482 -126.765625 143.77734375 C-129.35264997 142.87731234 -130.49562944 142.94296048 -133 144 C-133.53625 144.7425 -134.0725 145.485 -134.625 146.25 C-138.93636852 151.24211092 -146.25925541 154.68784484 -152.85546875 155.23828125 C-153.95503906 155.26277344 -155.05460937 155.28726563 -156.1875 155.3125 C-157.81751953 155.36857422 -157.81751953 155.36857422 -159.48046875 155.42578125 C-167.74952926 154.42541766 -172.56354475 149.98839995 -177.6875 143.75 C-178.22955078 143.11964844 -178.77160156 142.48929688 -179.33007812 141.83984375 C-187.36134608 132.32632731 -190.60265988 125.53511905 -190 113 C-189.57759845 109.43352729 -188.93801725 105.93012102 -188.25 102.40625 C-188.07243164 101.45230347 -187.89486328 100.49835693 -187.71191406 99.51550293 C-187.15054507 96.50850377 -186.57591796 93.50424319 -186 90.5 C-185.42663984 87.46677085 -184.85607769 84.43304261 -184.28808594 81.39880371 C-183.93564542 79.52058679 -183.57965774 77.6430312 -183.21972656 75.76623535 C-183.05956055 74.92105347 -182.89939453 74.07587158 -182.734375 73.20507812 C-182.52119629 72.09235535 -182.52119629 72.09235535 -182.30371094 70.95715332 C-181.9233277 68.83600996 -181.9233277 68.83600996 -182 66 C-186.61606084 70.75186923 -187.99309219 74.44058183 -189.02734375 80.91015625 C-189.18165863 81.77875778 -189.33597351 82.64735931 -189.4949646 83.5422821 C-189.99410347 86.37951816 -190.46587856 89.22057244 -190.9375 92.0625 C-191.27927344 94.03249953 -191.62263382 96.00222435 -191.9675293 97.97167969 C-193.6383462 107.58669436 -195.20714155 117.2179516 -196.7421875 126.85546875 C-196.94495049 128.12433678 -196.94495049 128.12433678 -197.15180969 129.4188385 C-197.78647512 133.40083462 -198.40985093 137.38391604 -199.00952148 141.37133789 C-201.62004216 158.42171234 -201.62004216 158.42171234 -206.25 163.4375 C-209.64955738 165.36906669 -212.09055499 165.93018848 -216 166 C-221.24092425 164.03465341 -224.5286502 159.21163765 -228 155 C-229.89869766 155.1450166 -229.89869766 155.1450166 -232 156 C-233.76131733 158.13315718 -233.76131733 158.13315718 -235.3125 160.75 C-239.59617339 167.12993909 -243.87898575 171.15213984 -251.63671875 172.71875 C-259.8869352 173.70059394 -268.47505335 173.99452014 -276 170 C-276.9590625 168.8553125 -276.9590625 168.8553125 -277.9375 167.6875 C-279.83837797 165.73796384 -279.83837797 165.73796384 -282.17578125 166.15625 C-283.92931912 166.51813338 -285.67349761 166.927881 -287.40625 167.37890625 C-289.79293987 167.95041783 -291.81254034 168.0828132 -294.25 168.125 C-299.03773832 169.24213894 -300.01381834 171.05040422 -302.64453125 175 C-306.84951433 181.20447072 -313.94766631 183.50608962 -321 185 C-327.59553597 185.5923452 -334.15573647 185.36519868 -340 182 C-342.96326343 179.22394636 -345.46304775 176.16280831 -348 173 C-351.46712668 169.36777205 -355.1122603 166.16443929 -359 163 C-359.09796875 163.60585938 -359.1959375 164.21171875 -359.296875 164.8359375 C-361.09366464 174.90415533 -363.8632925 184.26269078 -372 191 C-380.63458341 196.13377433 -387.92319709 198.94840498 -398 198 C-404.30094323 196.36477637 -408.71998225 193.97407469 -413 189 C-414.12060116 187.91211712 -415.24599523 186.82915909 -416.375 185.75 C-423.07384611 178.96320405 -428.65077483 172.9703786 -429 163 C-428.15976011 159.40988411 -426.8434959 157.3147733 -424 155 C-420.60931204 154.31036855 -417.40294717 154.40394238 -414 155 C-410.875 157.375 -410.875 157.375 -409 160 C-409 160.66 -409 161.32 -409 162 C-406.49057831 163.64077572 -405.03631467 164 -402 164 C-398.68340854 162.89446951 -397.73326639 161.77877029 -395.91455078 158.86865234 C-394.19596301 155.35715453 -393.60822134 151.63877014 -392.9375 147.8125 C-392.77467529 146.93972412 -392.61185059 146.06694824 -392.4440918 145.16772461 C-391.94438023 142.44805114 -391.46860729 139.7251921 -391 137 C-390.85143555 136.14986328 -390.70287109 135.29972656 -390.54980469 134.42382812 C-388.85693496 124.63346191 -387.51705144 114.93095352 -387 105 C-388.423125 104.4121875 -388.423125 104.4121875 -389.875 103.8125 C-393.46789921 101.72861846 -393.65623865 100.74333519 -395 97 C-395.58910156 96.71382813 -396.17820312 96.42765625 -396.78515625 96.1328125 C-401.39247831 93.77633384 -404.44143948 89.39595815 -407 85 C-407.61973831 81.66890657 -407.50288 79.05328189 -406 76 C-401.84899023 71.57225625 -397.29671243 70.87356713 -391.5625 69.875 C-390.67667236 69.71032227 -389.79084473 69.54564453 -388.87817383 69.37597656 C-386.25522094 68.89661668 -383.6294587 68.44215752 -381 68 C-379.9176709 67.81775879 -379.9176709 67.81775879 -378.81347656 67.63183594 C-372.53647534 66.60155891 -366.37601318 65.62448961 -360 66 C-357.8125 68.3125 -357.8125 68.3125 -356 71 C-355.2575 71.515625 -354.515 72.03125 -353.75 72.5625 C-353.1725 73.036875 -352.595 73.51125 -352 74 C-352 75.32 -352 76.64 -352 78 C-350.35 78.33 -348.7 78.66 -347 79 C-345.92441214 83.82886299 -346.18325797 88.04035541 -346.9375 92.875 C-347.08735352 93.90753906 -347.08735352 93.90753906 -347.24023438 94.9609375 C-347.48536453 96.64182997 -347.74154413 98.32110487 -348 100 C-347.38253906 99.59007812 -346.76507813 99.18015625 -346.12890625 98.7578125 C-337.18568881 93.0679116 -329.54270782 90.70661875 -319 93 C-307.94066083 96.42509385 -300.75902063 107.24658273 -294 116 C-291.86263746 105.7203371 -289.84474813 95.43870092 -288.18359375 85.0703125 C-288.03870514 84.16947937 -287.89381653 83.26864624 -287.74453735 82.34051514 C-287.15539752 78.66082388 -286.57072659 74.98051718 -285.99731445 71.29833984 C-285.56816922 68.55418789 -285.12677777 65.8122271 -284.68359375 63.0703125 C-284.55850937 62.24532257 -284.43342499 61.42033264 -284.30455017 60.57034302 C-283.54203297 55.91228589 -282.52319046 52.07930716 -280 48 C-276.29486945 45.52991297 -273.29793147 45.34008139 -269 46 C-264.26183486 48.70752294 -260.88628019 53.41765825 -258 58 C-258 58.66 -258 59.32 -258 60 C-257.38125 60.268125 -256.7625 60.53625 -256.125 60.8125 C-254 62 -254 62 -252 65 C-252.04515334 66.90054507 -252.09899718 68.80212726 -252.23291016 70.69848633 C-252.87664968 77.11256478 -252.87664968 77.11256478 -250.578125 82.77734375 C-248.6166825 83.85449992 -248.6166825 83.85449992 -246.4453125 84.7265625 C-243.14733107 86.44404165 -240.93327289 88.94384731 -238.5 91.6875 C-237.6440625 92.64011719 -236.788125 93.59273438 -235.90625 94.57421875 C-234 97 -234 97 -234 99 C-232.68 99.66 -231.36 100.32 -230 101 C-228.00750121 94.71523345 -226.96124886 88.36316458 -225.90625 81.86328125 C-225.51183936 79.48891225 -225.11730441 77.1145639 -224.72265625 74.74023438 C-224.10827385 71.01427855 -223.49599043 67.28799444 -222.88623047 63.5612793 C-222.29425161 59.95267679 -221.69443225 56.34544362 -221.09375 52.73828125 C-220.91348267 51.62157547 -220.73321533 50.50486969 -220.54748535 49.35432434 C-220.37390503 48.31612045 -220.20032471 47.27791656 -220.02148438 46.20825195 C-219.87207397 45.29670853 -219.72266357 44.3851651 -219.56872559 43.44599915 C-218.795859 40.12202173 -218.04403702 37.69897394 -215.15625 35.765625 C-212.80348078 34.93022144 -210.99158526 34.73293435 -208.5 34.75 C-207.7471875 34.74484375 -206.994375 34.7396875 -206.21875 34.734375 C-203.7703279 35.02749596 -202.12695946 35.78183231 -200 37 C-199.01 36.21625 -198.02 35.4325 -197 34.625 C-191.21565706 30.50832045 -185.04979923 29.38159656 -178 30 C-166.06583204 32.05607388 -157.11481615 42.84822217 -150 52 C-146.41795008 58.5998043 -145.88110562 63.62854839 -146 71 C-146 71.99 -146 72.98 -146 74 C-145.58041016 73.23816406 -145.58041016 73.23816406 -145.15234375 72.4609375 C-140.14135185 63.85685494 -134.13988249 58.96346768 -124.5 56.3125 C-116.89727224 55.36215903 -110.74879587 56.31718935 -104 60 C-96.86168494 65.89102883 -89.19300538 73.61398925 -85 82 C-82.82774707 76.76435048 -80.79444382 71.51080336 -79 66.1328125 C-78.67 65.14539063 -78.34 64.15796875 -78 63.140625 C-77.32632728 61.10908069 -76.65979723 59.07515553 -76 57.0390625 C-75.67 56.059375 -75.34 55.0796875 -75 54.0703125 C-74.566875 52.75184326 -74.566875 52.75184326 -74.125 51.40673828 C-72.44820567 47.81953374 -70.14406077 45.66736878 -66.75 43.6875 C-63.02512039 42.7562801 -59.66238968 42.79307613 -56 44 C-52.31531833 46.57178095 -49.66138877 49.4475725 -46.9375 53 C-44.9880829 55.53231212 -43.1330077 57.87341664 -40.81640625 60.078125 C-38.56327495 62.46208328 -38.10230438 64.59200144 -37.81640625 67.828125 C-38.1420703 71.68066147 -39.99317326 74.76151564 -42 78 C-40.73549459 79.79613832 -39.46316512 81.58677034 -38.1875 83.375 C-37.12595703 84.87160156 -37.12595703 84.87160156 -36.04296875 86.3984375 C-34.08757661 89.16680648 -34.08757661 89.16680648 -31 91 C-27.63647312 81.82674489 -24.98268596 71.83403572 -26 62 C-27.62981717 59.02136863 -29.10222145 56.76477432 -31.6875 54.5625 C-33.87728813 51.95560937 -33.82575445 49.31066552 -34 46 C-33.5 43.75 -33.5 43.75 -32 42 C-28.39734424 40.19867212 -24.9064838 38.92069112 -21 38 C-20.89453857 37.42668945 -20.78907715 36.85337891 -20.68041992 36.26269531 C-14.81007099 4.49974383 -14.81007099 4.49974383 -10 0 C-6.70375322 -1.64812339 -3.40438997 -1.07126557 0 0 Z M-149 84 C-148 88 -148 88 -148 88 Z M-150 88 C-150 89.98 -150 91.96 -150 94 C-149.67 94 -149.34 94 -149 94 C-149 92.02 -149 90.04 -149 88 C-149.33 88 -149.66 88 -150 88 Z M-151 94 C-151.53010201 96.60259124 -152.04937795 99.206557 -152.5625 101.8125 C-152.71396484 102.55048828 -152.86542969 103.28847656 -153.02148438 104.04882812 C-153.90812606 108.5544916 -153.90812606 108.5544916 -153 113 C-150.69208537 106.38397806 -149.88199182 100.96248249 -150 94 C-150.33 94 -150.66 94 -151 94 Z " fill="#F7F1E3" transform="translate(458,110)"/>
<path d="M0 0 C2.3125 -0.3125 2.3125 -0.3125 5 0 C6.625 2.375 6.625 2.375 8 5 C8.99 5.66 9.98 6.32 11 7 C13.01475301 20.60688267 10.00077184 30.09193298 2.36328125 41.4296875 C-2.49348623 47.6623431 -10.14005391 52.62185916 -18 54 C-25.43830813 54.55256003 -31.19631137 54.037361 -38 51 C-39.9656778 50.16724284 -39.9656778 50.16724284 -42 50 C-43.74075589 50.98999672 -43.74075589 50.98999672 -45.375 52.5625 C-58.13761942 62.72532658 -75.99182977 66.47091779 -92 65 C-96.14433569 64.09786888 -100.05897866 62.77109067 -103.99609375 61.20703125 C-106.99835933 60.89685566 -108.12818867 62.26353151 -110.4375 64.125 C-121.79963432 72.56640737 -135.0936597 75.45315342 -149 74 C-152.08835832 73.14431981 -154.86002612 72.1173482 -157.765625 70.77734375 C-160.35264997 69.87731234 -161.49562944 69.94296048 -164 71 C-164.53625 71.7425 -165.0725 72.485 -165.625 73.25 C-169.93636852 78.24211092 -177.25925541 81.68784484 -183.85546875 82.23828125 C-191.78405435 82.41488515 -197.60740948 82.02654131 -203.59375 76.5390625 C-206.39535821 73.47285796 -207 72.25256236 -207 68 C-206.39414062 68.03480469 -205.78828125 68.06960937 -205.1640625 68.10546875 C-194.71367742 68.44309658 -186.83623178 66.01424943 -179 59 C-177.9171875 57.7934375 -177.9171875 57.7934375 -176.8125 56.5625 C-175 55 -175 55 -172.8125 55.0625 C-171.27186985 55.57604338 -169.73587668 56.11269262 -168.2421875 56.75 C-155.25367597 61.88614144 -141.44517887 59.32969284 -129 54 C-126.09795119 52.22048281 -123.58159754 50.20525212 -121 48 C-118.375 46.4375 -118.375 46.4375 -116 46 C-112.9375 47.3125 -112.9375 47.3125 -110 49 C-95.8625168 53.32542015 -78.43068587 50.01142261 -65.640625 43.21484375 C-62.21232864 41.0789607 -58.99461917 38.82547876 -55.88671875 36.24609375 C-55.26410156 35.83488281 -54.64148438 35.42367187 -54 35 C-51.125 35.6875 -51.125 35.6875 -48 37 C-39.23037024 40.67100781 -31.12003978 39.54091155 -22.5078125 36.0703125 C-21.68023437 35.71710938 -20.85265625 35.36390625 -20 35 C-19.08992187 34.68804687 -18.17984375 34.37609375 -17.2421875 34.0546875 C-16.50226563 33.70664063 -15.76234375 33.35859375 -15 33 C-14.67 32.01 -14.34 31.02 -14 30 C-13.34 30 -12.68 30 -12 30 C-11.71898437 29.41347656 -11.43796875 28.82695312 -11.1484375 28.22265625 C-10.08955558 26.17332356 -8.91789507 24.3439026 -7.625 22.4375 C-3.31575065 15.60389749 -0.7146319 8.0396089 0 0 Z " fill="#FCCFCD" transform="translate(489,183)"/>
<path d="M0 0 C2.3125 2.375 2.3125 2.375 4 5 C4.99 5.99 4.99 5.99 6 7 C4.02 7 2.04 7 0 7 C-0.04680908 7.5377002 -0.09361816 8.07540039 -0.1418457 8.62939453 C-0.897574 16.7465997 -2.02999363 24.80744049 -3.1875 32.875 C-3.29471375 33.62401581 -3.40192749 34.37303162 -3.51239014 35.14474487 C-5.14698953 46.51904462 -6.88146261 57.87631286 -8.7406311 69.21612549 C-8.99399517 70.76278288 -9.24532529 72.30977504 -9.49447632 73.8571167 C-12.08449569 89.88232893 -14.91669317 103.22831569 -28 114 C-35.21469204 119.04603215 -43.4947934 118.78313465 -52 118 C-59.00273449 116.36290347 -62.45326446 113.68072515 -66.25 107.625 C-68.5934566 103.24292669 -69.58175729 99.13311007 -68.25 94.25 C-66.98406012 91.97130822 -66.02248022 90.62896597 -64 89 C-60.60931204 88.31036855 -57.40294717 88.40394238 -54 89 C-50.875 91.375 -50.875 91.375 -49 94 C-49 94.66 -49 95.32 -49 96 C-46.49057831 97.64077572 -45.03631467 98 -42 98 C-38.68340854 96.89446951 -37.73326639 95.77877029 -35.91455078 92.86865234 C-34.19596301 89.35715453 -33.60822134 85.63877014 -32.9375 81.8125 C-32.77467529 80.93972412 -32.61185059 80.06694824 -32.4440918 79.16772461 C-31.94438023 76.44805114 -31.46860729 73.7251921 -31 71 C-30.85143555 70.14986328 -30.70287109 69.29972656 -30.54980469 68.42382812 C-28.85693496 58.63346191 -27.51705144 48.93095352 -27 39 C-28.423125 38.4121875 -28.423125 38.4121875 -29.875 37.8125 C-33.46789921 35.72861846 -33.65623865 34.74333519 -35 31 C-35.58910156 30.71382812 -36.17820313 30.42765625 -36.78515625 30.1328125 C-41.39247831 27.77633384 -44.44143948 23.39595815 -47 19 C-47.61973831 15.66890657 -47.50288 13.05328189 -46 10 C-41.84899023 5.57225625 -37.29671243 4.87356713 -31.5625 3.875 C-30.23375854 3.6279834 -30.23375854 3.6279834 -28.87817383 3.37597656 C-26.25522094 2.89661668 -23.6294587 2.44215752 -21 2 C-19.9176709 1.81775879 -19.9176709 1.81775879 -18.81347656 1.63183594 C-12.53797385 0.60180487 -6.37428139 -0.38215116 0 0 Z " fill="#F6F1E3" transform="translate(98,176)"/>
<path d="M0 0 C2 2 2 2 2 6 C1.11248047 6.31130859 1.11248047 6.31130859 0.20703125 6.62890625 C-0.58316406 6.93699219 -1.37335938 7.24507812 -2.1875 7.5625 C-2.96480469 7.85253906 -3.74210938 8.14257812 -4.54296875 8.44140625 C-8.59678082 11.0129023 -11.26250922 14.66826374 -12.70219421 19.22013855 C-13.22272506 21.71956778 -13.62488662 24.21068142 -13.984375 26.73828125 C-14.20326385 28.11949409 -14.20326385 28.11949409 -14.42657471 29.52861023 C-14.88549982 32.45414174 -15.31779393 35.38291552 -15.75 38.3125 C-16.05431164 40.26784 -16.36028647 42.22292193 -16.66796875 44.17773438 C-17.48628553 49.44668618 -18.29355435 54.71473755 -19 60 C-19.12620728 60.90720795 -19.25241455 61.81441589 -19.38244629 62.74911499 C-19.49245972 63.63910187 -19.60247314 64.52908875 -19.71582031 65.44604492 C-19.81872375 66.24789719 -19.9216272 67.04974945 -20.02764893 67.87590027 C-20.18856828 70.30628972 -20.18856828 70.30628972 -18 73 C-17.03152914 80.60941391 -19.85387066 86.18201735 -23 93 C-23.50402344 94.17304688 -24.00804687 95.34609375 -24.52734375 96.5546875 C-25.03394531 97.71226562 -25.54054687 98.86984375 -26.0625 100.0625 C-26.52785156 101.12597656 -26.99320313 102.18945312 -27.47265625 103.28515625 C-29.06491695 106.11538947 -30.18091053 107.43088416 -33 109 C-35.86499837 109.56090179 -38.02557199 109.28327886 -41 109 C-42.0194119 108.01979625 -43.02246356 107.02196992 -44 106 C-46.95195002 106.00407778 -46.95195002 106.00407778 -50 107 C-51.97090169 109.08800359 -51.97090169 109.08800359 -53.4375 111.75 C-57.37849501 117.79977303 -60.84362157 120.85717333 -67.625 123.3125 C-76.24428208 125.05309289 -86.07291273 125.20799126 -94 121 C-94.9590625 119.8553125 -94.9590625 119.8553125 -95.9375 118.6875 C-97.83837797 116.73796384 -97.83837797 116.73796384 -100.17578125 117.15625 C-101.92931912 117.51813338 -103.67349761 117.927881 -105.40625 118.37890625 C-107.79293987 118.95041783 -109.81254034 119.0828132 -112.25 119.125 C-117.03773832 120.24213894 -118.01381834 122.05040422 -120.64453125 126 C-124.84951433 132.20447072 -131.94766631 134.50608962 -139 136 C-145.58779558 136.59165003 -152.16684291 136.37377194 -158 133 C-160.26326089 130.84125916 -162.23013831 128.60359961 -164.17578125 126.15625 C-165.92112795 123.92714355 -165.92112795 123.92714355 -168.23046875 122.34375 C-169.10638672 121.67859375 -169.10638672 121.67859375 -170 121 C-170 120.34 -170 119.68 -170 119 C-168.783125 119.33 -167.56625 119.66 -166.3125 120 C-156.7223089 122.08416752 -147.51722294 122.27585065 -139 117 C-135.36843121 114.63866603 -133.07423591 112.33753422 -131.4375 108.3125 C-130.5390625 106.51171875 -130.5390625 106.51171875 -129 105 C-125.58781244 104.05885507 -122.32210847 103.62591916 -118.80078125 103.2890625 C-116.09737167 103.30763076 -116.09737167 103.30763076 -115 102 C-113.00041636 101.95919217 -110.99954746 101.95745644 -109 102 C-108.79375 102.61875 -108.5875 103.2375 -108.375 103.875 C-106.44444875 106.8585792 -104.34938072 107.09287605 -101 108 C-100.34 108.33 -99.68 108.66 -99 109 C-96.27953756 109.12578482 -93.59575056 109.18518644 -90.875 109.1875 C-90.14023438 109.19974609 -89.40546875 109.21199219 -88.6484375 109.22460938 C-83.44821792 109.23834235 -78.99955057 108.43411144 -74 107 C-74 106.34 -74 105.68 -74 105 C-73.0925 104.4225 -72.185 103.845 -71.25 103.25 C-66.90860368 100.24441793 -64.66278398 96.98835194 -63 92 C-58.05 91.505 -58.05 91.505 -53 91 C-52.51171875 93.31119792 -52.0234375 95.62239583 -51.53515625 97.93359375 C-51.19247006 99.97661204 -51.19247006 99.97661204 -50 101 C-42.87709476 101.76135281 -42.87709476 101.76135281 -36.4375 99.3125 C-33.46053463 94.52346875 -32.45120837 89.64915323 -31.58300781 84.13964844 C-31.45580353 83.36333572 -31.32859924 82.58702301 -31.19754028 81.78718567 C-30.92249741 80.10701445 -30.64979697 78.42645845 -30.37918854 76.74556732 C-29.94808603 74.07819726 -29.50721452 71.41262015 -29.06317139 68.74737549 C-27.80122297 61.17117524 -26.54502864 53.59418267 -25.32421875 46.01123047 C-24.57566477 41.36620376 -23.80567212 36.72515921 -23.02193451 32.08594513 C-22.72860257 30.32515172 -22.44314262 28.56302684 -22.16599274 26.79961395 C-19.13451483 7.55376675 -19.13451483 7.55376675 -13 2 C-8.3680801 -0.17419356 -5.05892147 -0.33173256 0 0 Z " fill="#FCCECC" transform="translate(276,159)"/>
<path d="M0 0 C-0.53485327 10.34049649 -3.68674046 20.69573247 -10 29 C-10.66 29 -11.32 29 -12 29 C-12 29.66 -12 30.32 -12 31 C-13.4609375 32.2890625 -13.4609375 32.2890625 -15.375 33.625 C-16.00148438 34.07101563 -16.62796875 34.51703125 -17.2734375 34.9765625 C-19 36 -19 36 -21 36 C-21 36.66 -21 37.32 -21 38 C-27.21532578 40.56553988 -33.21348927 41.36914509 -39.875 41.5 C-40.61226318 41.53029297 -41.34952637 41.56058594 -42.10913086 41.59179688 C-44.2421875 41.59375 -44.2421875 41.59375 -48 41 C-50.5078125 38.46875 -50.5078125 38.46875 -52 36 C-54.91123329 37.3772875 -57.48778141 38.96839327 -60.125 40.8125 C-76.59494074 51.79246049 -93.54001279 53.42012291 -113 52 C-115 51 -115 51 -116 48 C-119.6554517 48.63757878 -122.07928237 50.2391033 -125.125 52.3125 C-136.93321813 60.00047089 -147.17311892 61.30309447 -161 61 C-161.92554688 60.98324219 -162.85109375 60.96648437 -163.8046875 60.94921875 C-167.95733601 60.70453407 -169.83064912 60.14170176 -173.0625 57.4375 C-173.701875 56.633125 -174.34125 55.82875 -175 55 C-175.226875 55.5775 -175.45375 56.155 -175.6875 56.75 C-177.34401993 59.58974845 -179.39468706 61.01499967 -182 63 C-182.61875 63.70125 -183.2375 64.4025 -183.875 65.125 C-189.39953131 69.99958645 -196.62043064 69.26305591 -203.59765625 69.36328125 C-207.3311812 68.96463852 -209.76869997 67.86402239 -213 66 C-213 64.68 -213 63.36 -213 62 C-212.39414062 62.03480469 -211.78828125 62.06960937 -211.1640625 62.10546875 C-200.71367742 62.44309658 -192.83623178 60.01424943 -185 53 C-183.9171875 51.7934375 -183.9171875 51.7934375 -182.8125 50.5625 C-181 49 -181 49 -178.8125 49.0625 C-177.27186985 49.57604338 -175.73587668 50.11269262 -174.2421875 50.75 C-161.25367597 55.88614144 -147.44517887 53.32969284 -135 48 C-132.09795119 46.22048281 -129.58159754 44.20525212 -127 42 C-124.375 40.4375 -124.375 40.4375 -122 40 C-118.9375 41.3125 -118.9375 41.3125 -116 43 C-101.8625168 47.32542015 -84.43068587 44.01142261 -71.640625 37.21484375 C-68.21232864 35.0789607 -64.99461917 32.82547876 -61.88671875 30.24609375 C-61.26410156 29.83488281 -60.64148438 29.42367187 -60 29 C-57.125 29.6875 -57.125 29.6875 -54 31 C-45.23037024 34.67100781 -37.12003978 33.54091155 -28.5078125 30.0703125 C-27.68023437 29.71710938 -26.85265625 29.36390625 -26 29 C-25.08992187 28.68804687 -24.17984375 28.37609375 -23.2421875 28.0546875 C-22.50226563 27.70664063 -21.76234375 27.35859375 -21 27 C-20.67 26.01 -20.34 25.02 -20 24 C-19.34 24 -18.68 24 -18 24 C-17.71898437 23.41605469 -17.43796875 22.83210938 -17.1484375 22.23046875 C-16.08037017 20.15609309 -14.90671418 18.25956263 -13.625 16.3125 C-11.31128319 12.67860359 -9.590208 8.97551999 -7.9921875 4.98046875 C-5.88970239 0.78377603 -4.82341731 0 0 0 Z " fill="#F99A93" transform="translate(495,189)"/>
<path d="M0 0 C-0.94358606 11.97086798 -2.50296263 23.78590381 -4.5 35.625 C-4.71358154 36.89230957 -4.92716309 38.15961914 -5.1472168 39.46533203 C-6.04623744 44.70990761 -6.9707808 49.9381085 -8.0703125 55.14453125 C-9.42287831 61.75014824 -10.02146197 68.46139792 -10.6796875 75.16601562 C-12.00463575 86.94751572 -16.55571677 96.2342961 -25.375 104.25 C-26.56284676 105.19306272 -27.77135379 106.11074429 -29 107 C-29.57105469 107.41507812 -30.14210937 107.83015625 -30.73046875 108.2578125 C-36.99061232 112.07529877 -43.89893993 111.79608297 -51 111 C-56.45522253 109.60049265 -61.5667564 107.68169582 -65 103 C-65 102.34 -65 101.68 -65 101 C-63.99582031 101.32097656 -62.99164063 101.64195312 -61.95703125 101.97265625 C-54.11672446 104.19726202 -45.04845126 104.44168347 -37.5625 101 C-29.06269928 95.97931904 -23.1084374 89.12145932 -20.29589844 79.62182617 C-19.65090891 76.92438409 -19.09186974 74.2225058 -18.5625 71.5 C-18.35641113 70.47463135 -18.15032227 69.4492627 -17.93798828 68.39282227 C-14.73682605 52.03926939 -12.1235132 35.49742057 -10.125 18.953125 C-9.99561035 17.88715088 -9.8662207 16.82117676 -9.73291016 15.72290039 C-9.50085034 13.7548242 -9.28101119 11.78525344 -9.07568359 9.81420898 C-8.97594238 8.95126221 -8.87620117 8.08831543 -8.7734375 7.19921875 C-8.65621338 6.08293091 -8.65621338 6.08293091 -8.53662109 4.9440918 C-7.24113321 0.25074783 -4.49786676 -0.3646919 0 0 Z " fill="#F89B94" transform="translate(104,190)"/>
<path d="M0 0 C2 2 2 2 2 6 C1.40832031 6.20753906 0.81664062 6.41507813 0.20703125 6.62890625 C-0.58316406 6.93699219 -1.37335938 7.24507812 -2.1875 7.5625 C-2.96480469 7.85253906 -3.74210937 8.14257812 -4.54296875 8.44140625 C-8.59678082 11.0129023 -11.26250922 14.66826374 -12.70219421 19.22013855 C-13.22272506 21.71956778 -13.62488662 24.21068142 -13.984375 26.73828125 C-14.1303009 27.65908981 -14.27622681 28.57989838 -14.42657471 29.52861023 C-14.88549982 32.45414174 -15.31779393 35.38291552 -15.75 38.3125 C-16.05431164 40.26784 -16.36028647 42.22292193 -16.66796875 44.17773438 C-17.48628553 49.44668618 -18.29355435 54.71473755 -19 60 C-19.12620728 60.90720795 -19.25241455 61.81441589 -19.38244629 62.74911499 C-19.49245972 63.63910187 -19.60247314 64.52908875 -19.71582031 65.44604492 C-19.81872375 66.24789719 -19.9216272 67.04974945 -20.02764893 67.87590027 C-20.18856828 70.30628972 -20.18856828 70.30628972 -18 73 C-17.03152914 80.60941391 -19.85387066 86.18201735 -23 93 C-23.50402344 94.17304688 -24.00804687 95.34609375 -24.52734375 96.5546875 C-25.03394531 97.71226562 -25.54054687 98.86984375 -26.0625 100.0625 C-26.76052734 101.65771484 -26.76052734 101.65771484 -27.47265625 103.28515625 C-29.06367223 106.11317699 -30.18880584 107.42402752 -33 109 C-37.81531263 109.53503474 -39.87846537 109.70095914 -44 107.125 C-46 105 -46 105 -46 103 C-45.39671875 102.87625 -44.7934375 102.7525 -44.171875 102.625 C-42.97304687 102.315625 -42.97304687 102.315625 -41.75 102 C-40.96109375 101.814375 -40.1721875 101.62875 -39.359375 101.4375 C-35.33670974 98.98660461 -33.69178575 94.44408023 -32.43371964 89.99933052 C-32.01034357 87.93816321 -31.66788181 85.87999328 -31.35595703 83.79907227 C-31.16471252 82.63394608 -31.16471252 82.63394608 -30.96960449 81.44528198 C-30.69668409 79.7738897 -30.42955099 78.1015438 -30.16772842 76.42837715 C-29.7508878 73.7722823 -29.31611262 71.11967427 -28.87643433 68.4672699 C-27.63033482 60.93105738 -26.41535586 53.38995708 -25.21435547 45.84643555 C-24.47610994 41.2175027 -23.71640897 36.59248728 -22.94405746 31.96912956 C-22.65587738 30.21676087 -22.37598235 28.46300724 -22.10486221 26.70791817 C-19.14693144 7.57039452 -19.14693144 7.57039452 -13 2 C-8.36836783 -0.17457106 -5.05874446 -0.33172095 0 0 Z " fill="#F89A93" transform="translate(276,159)"/>
<path d="M0 0 C2.31 0 4.62 0 7 0 C7.495 2.475 7.495 2.475 8 5 C10.475 5.495 10.475 5.495 13 6 C14.94019127 15.35449363 12.22446648 24.20600052 9 33 C8.34 33 7.68 33 7 33 C2.03675265 51.03901068 -0.5835733 68.13661109 0.28613281 86.91699219 C0.57732076 97.13210068 -1.86105061 106.17780208 -8.0625 114.4375 C-14.05761206 120.68406267 -23.4130017 125.0760389 -32.0625 125.3125 C-39.17040168 125.23718449 -45.84448888 123.41359526 -51.0625 118.375 C-53 116 -53 116 -54 114 C-52.80375 114.495 -51.6075 114.99 -50.375 115.5 C-42.28747024 118.14914361 -33.38860825 118.55230305 -25.5625 114.9375 C-16.21737599 109.48362435 -10.10549719 101.28867371 -7 91 C-6.62247974 88.72863986 -6.30446833 86.44687211 -6.03515625 84.16015625 C-5.91689735 83.19413734 -5.91689735 83.19413734 -5.79624939 82.20860291 C-5.54577237 80.16056126 -5.30317073 78.11171555 -5.0625 76.0625 C-3.97413529 66.80747695 -2.62815445 57.73367724 -0.72485352 48.60083008 C0.39595834 43.03301128 1.2327049 37.42983718 2.0625 31.8125 C2.38595603 29.65222941 2.71017121 27.49207235 3.03515625 25.33203125 C3.19129395 24.29385254 3.34743164 23.25567383 3.50830078 22.18603516 C4.29076033 17.11597699 5.14089054 12.0575598 6 7 C3.69 7.33 1.38 7.66 -1 8 C-0.67 5.36 -0.34 2.72 0 0 Z " fill="#FBD1CE" transform="translate(98,183)"/>
<path d="M0 0 C0 2.64 0 5.28 0 8 C-1.32 8 -2.64 8 -4 8 C-4.226875 8.886875 -4.45375 9.77375 -4.6875 10.6875 C-7.29610222 17.27111513 -12.94838726 20.78654672 -19 24 C-25.91737864 26.90529903 -35.49910697 27.77307907 -42.578125 24.984375 C-45.25761793 23.33698305 -47.41624895 21.75464628 -49.34765625 19.2578125 C-51.01241413 17.69093247 -51.01241413 17.69093247 -53.671875 18.29296875 C-54.68765625 18.58816406 -55.7034375 18.88335937 -56.75 19.1875 C-58.35488281 19.6515625 -58.35488281 19.6515625 -59.9921875 20.125 C-60.98476562 20.41375 -61.97734375 20.7025 -63 21 C-64.27875 21.226875 -65.5575 21.45375 -66.875 21.6875 C-70.83642453 23.3512983 -71.91624968 25.48382701 -74.26171875 28.9609375 C-78.05463097 33.41015139 -84.30355777 35.94705319 -90 37 C-100.08124369 37.765823 -107.07683137 36.75615571 -115.5625 31.375 C-116.036875 30.92125 -116.51125 30.4675 -117 30 C-117 29.34 -117 28.68 -117 28 C-115.783125 28.33 -114.56625 28.66 -113.3125 29 C-103.7223089 31.08416752 -94.51722294 31.27585065 -86 26 C-82.36843121 23.63866603 -80.07423591 21.33753422 -78.4375 17.3125 C-77.5390625 15.51171875 -77.5390625 15.51171875 -76 14 C-72.58781244 13.05885507 -69.32210847 12.62591916 -65.80078125 12.2890625 C-63.09737167 12.30763076 -63.09737167 12.30763076 -62 11 C-60.00041636 10.95919217 -57.99954746 10.95745644 -56 11 C-55.79375 11.61875 -55.5875 12.2375 -55.375 12.875 C-53.44444875 15.8585792 -51.34938072 16.09287605 -48 17 C-47.34 17.33 -46.68 17.66 -46 18 C-43.27953756 18.12578482 -40.59575056 18.18518644 -37.875 18.1875 C-36.77285156 18.20586914 -36.77285156 18.20586914 -35.6484375 18.22460938 C-30.44821792 18.23834235 -25.99955057 17.43411144 -21 16 C-21 15.34 -21 14.68 -21 14 C-20.0925 13.4225 -19.185 12.845 -18.25 12.25 C-13.90860368 9.24441793 -11.66278398 5.98835194 -10 1 C-6.59437148 0.22157062 -3.49234244 -0.09978121 0 0 Z " fill="#F89B94" transform="translate(223,250)"/>
<path d="M0 0 C1.125 1.5625 1.125 1.5625 2 4 C1.125 7.75 1.125 7.75 0 11 C-0.66 11 -1.32 11 -2 11 C-2.268125 11.5775 -2.53625 12.155 -2.8125 12.75 C-4 15 -4 15 -5.4597168 16.59594727 C-7.70367807 20.09829101 -8.14004287 23.65348018 -8.83203125 27.71484375 C-8.98917603 28.58627518 -9.1463208 29.4577066 -9.30822754 30.35554504 C-9.82049692 33.21438602 -10.31659009 36.07577996 -10.8125 38.9375 C-11.16421172 40.91647387 -11.51667669 42.895314 -11.86987305 44.87402344 C-13.58112332 54.52362654 -15.21227801 64.18452537 -16.75 73.86328125 C-16.88468185 74.7086998 -17.01936371 75.55411835 -17.15812683 76.42515564 C-17.78987249 80.40495673 -18.40966517 84.3860425 -19.0090332 88.37084961 C-21.62123177 105.42300108 -21.62123177 105.42300108 -26.25 110.4375 C-29.64955738 112.36906669 -32.09055499 112.93018848 -36 113 C-41.24092425 111.03465341 -44.5286502 106.21163765 -48 102 C-47.01 102 -46.02 102 -45 102 C-44.34 102.66 -43.68 103.32 -43 104 C-36.66707583 104.47685924 -36.66707583 104.47685924 -31 102 C-30.01523919 100.10551542 -30.01523919 100.10551542 -29.5 97.875 C-28.56761969 94.70794733 -27.53002598 91.86425425 -26 88.9375 C-22.51591745 82.17033966 -20.34615007 76.71542918 -21 69 C-21.66 68.01 -22.32 67.02 -23 66 C-23.02641296 63.87466431 -23.02641296 63.87466431 -22.71362305 61.44384766 C-22.5485878 60.10885223 -22.5485878 60.10885223 -22.38021851 58.74688721 C-22.2547464 57.84041443 -22.12927429 56.93394165 -22 56 C-21.83777451 54.76428253 -21.83777451 54.76428253 -21.67227173 53.50360107 C-20.93974343 48.09656656 -20.1024975 42.70485 -19.26342773 37.31347656 C-18.96247499 35.35231398 -18.67082262 33.38970191 -18.38842773 31.42578125 C-17.97524572 28.55862827 -17.53182129 25.69754814 -17.08203125 22.8359375 C-16.90351372 21.53406998 -16.90351372 21.53406998 -16.72138977 20.2059021 C-15.69130371 13.95575296 -13.42908346 9.56886117 -9 5 C-5.65891842 2.90363509 -3.9263052 2 0 2 C0 1.34 0 0.68 0 0 Z " fill="#FCD0CE" transform="translate(278,163)"/>
<path d="M0 0 C1.66611905 -0.042721 3.33382885 -0.04063832 5 0 C6.56918492 1.56918492 6.28258943 3.14085159 6.375 5.3125 C6.3065212 8.63635573 6.25488813 9.66600866 4.1875 12.375 C-0.34953629 14.68799889 -5.05427301 15.85667957 -10 17 C-12.38786181 31.44920007 -12.38786181 31.44920007 -14 46 C-13.34 46 -12.68 46 -12 46 C-10.5216774 48.95664519 -10.93967217 51.74229737 -11 55 C-12.43583001 55.10836453 -13.8740202 55.18576167 -15.3125 55.25 C-16.11300781 55.29640625 -16.91351563 55.3428125 -17.73828125 55.390625 C-20 55 -20 55 -21.65209961 53.30712891 C-23.33936244 50.41913149 -23.20849796 48.99473377 -22.828125 45.6953125 C-22.64926758 44.10444824 -22.64926758 44.10444824 -22.46679688 42.48144531 C-22.31275391 41.33256836 -22.15871094 40.18369141 -22 39 C-21.84080078 37.79182617 -21.68160156 36.58365234 -21.51757812 35.33886719 C-20.97783059 31.50824138 -20.37217113 27.69304393 -19.75 23.875 C-19.60570557 22.88838379 -19.60570557 22.88838379 -19.45849609 21.88183594 C-19.1765394 19.9569484 -18.86219826 18.03689135 -18.546875 16.1171875 C-18.36995117 14.98909668 -18.19302734 13.86100586 -18.01074219 12.69873047 C-17 10 -17 10 -14.55249023 8.63476562 C-11.33670368 7.83504826 -8.28779324 7.66106126 -4.98828125 7.5390625 C-2.83196228 7.19123049 -2.83196228 7.19123049 -1.79296875 5.1484375 C-1.16373486 3.44361662 -0.57466073 1.72398218 0 0 Z " fill="#FA9992" transform="translate(471,152)"/>
<path d="M0 0 C3.84375 1.640625 3.84375 1.640625 5.25 4.875 C7.5580959 14.84142958 5.54637785 25.18924848 3.75 35.0625 C3.29081778 37.69105869 2.83356795 40.31988173 2.37890625 42.94921875 C2.2633992 43.61189758 2.14789215 44.27457642 2.02888489 44.95733643 C0.79514153 52.0789611 -0.26917374 59.22302731 -1.3125 66.375 C-1.48362305 67.54554932 -1.65474609 68.71609863 -1.83105469 69.92211914 C-2.22303219 72.61441785 -2.61289318 75.30699737 -3 78 C-5.375 78.625 -5.375 78.625 -8 79 C-10 77 -10 77 -10.07983398 73.87597656 C-9.40692853 63.98893009 -8.01583164 54.45944767 -6.0625 44.75 C-5.52952941 42.03704734 -5.00130838 39.32317212 -4.47265625 36.609375 C-4.22064453 35.31805664 -3.96863281 34.02673828 -3.70898438 32.69628906 C-2.11425593 24.38217453 -0.74367093 16.21407005 -0.375 7.75 C-0.33632813 6.99332031 -0.29765625 6.23664063 -0.2578125 5.45703125 C-0.16572594 3.63832176 -0.08190695 1.81919636 0 0 Z " fill="#F79B94" transform="translate(299,155)"/>
<path d="M0 0 C3 1 3 1 4.6875 3.375 C6.85917516 9.37295996 7.18047712 15.9165661 4.625 21.875 C4.08875 22.90625 3.5525 23.9375 3 25 C2.71125 25.86625 2.4225 26.7325 2.125 27.625 C-0.45416829 33.06991083 -4.71898416 35.53552594 -10 38 C-10.66 38.66 -11.32 39.32 -12 40 C-15.0390625 40.1953125 -15.0390625 40.1953125 -18.625 40.125 C-20.40777344 40.09792969 -20.40777344 40.09792969 -22.2265625 40.0703125 C-23.59941406 40.03550781 -23.59941406 40.03550781 -25 40 C-25.495 42.475 -25.495 42.475 -26 45 C-29.55948201 44.67641073 -31.53463476 44.3899006 -34.3125 42.0625 C-37.14927125 38.59533513 -37.09612324 36.42166925 -37 32 C-35.96101563 32.04640625 -34.92203125 32.0928125 -33.8515625 32.140625 C-25.3612794 32.40352623 -18.673771 32.07483189 -11 28 C-10.29359375 27.70867187 -9.5871875 27.41734375 -8.859375 27.1171875 C-6.52973863 25.717448 -6.04258772 24.47440818 -5 22 C-4.319375 20.88625 -3.63875 19.7725 -2.9375 18.625 C0.02718595 12.82788175 -0.17936786 6.3854957 0 0 Z " fill="#F89C94" transform="translate(362,182)"/>
<path d="M0 0 C4.81827959 3.38581809 7.05351354 6.73031952 8.6875 12.375 C9.62710403 20.26767384 8.33061582 26.453244 6 34 C5.34 34 4.68 34 4 34 C4.02320313 35.09957031 4.04640625 36.19914062 4.0703125 37.33203125 C4.19543742 45.82512594 3.88884091 53.68106239 2 62 C1.89042969 62.81082031 1.78085937 63.62164062 1.66796875 64.45703125 C0.84372816 69.91875733 -0.90977872 72.57245893 -5.1484375 76.1015625 C-7 77 -7 77 -9.2265625 76.6484375 C-9.81179688 76.43445313 -10.39703125 76.22046875 -11 76 C-9.515 75.505 -9.515 75.505 -8 75 C-7.89453857 74.27635254 -7.78907715 73.55270508 -7.68041992 72.80712891 C-4.12586309 48.47104748 -4.12586309 48.47104748 -2.375 38.0625 C-2.25495605 37.34513672 -2.13491211 36.62777344 -2.01123047 35.88867188 C-1.49110561 32.80698632 -0.94943717 29.73148311 -0.37109375 26.66015625 C1.25774447 17.80975555 1.97061139 8.86775127 0 0 Z " fill="#FCCDCA" transform="translate(303,158)"/>
<path d="M0 0 C2 2 2 2 2.4375 4.4375 C2.2209375 5.7059375 2.2209375 5.7059375 2 7 C-0.3125 8.5625 -0.3125 8.5625 -3 10 C-7.37172881 14.37172881 -8.08483814 20.69169022 -8.375 26.625 C-8.30612566 31.09417946 -6.47939316 33.32090048 -4 37 C-4 40.8063221 -4.15381216 42.99108373 -6.625 45.9375 C-9.92116214 47.41209885 -12.43580741 47.3960214 -16 47 C-20.4318177 40.35227345 -17.86711534 30.87870566 -16.41796875 23.43945312 C-16.19753906 22.36630859 -15.97710937 21.29316406 -15.75 20.1875 C-15.54503906 19.09501953 -15.34007812 18.00253906 -15.12890625 16.87695312 C-13.31344047 7.83813409 -11.00725718 -0.93678785 0 0 Z " fill="#F69C94" transform="translate(199,207)"/>
<path d="M0 0 C6.74918567 4.70032573 6.74918567 4.70032573 7.6875 9.5625 C6.8410556 13.79472201 6.36751549 15.24476005 3 18 C-0.94522497 19.30633114 -4.92244484 20.21141622 -9 21 C-9.11069824 21.62455078 -9.22139648 22.24910156 -9.33544922 22.89257812 C-9.84576425 25.76223728 -10.36035265 28.63111478 -10.875 31.5 C-11.04902344 32.48226562 -11.22304688 33.46453125 -11.40234375 34.4765625 C-12.4055261 40.04979777 -13.55299208 45.5248349 -15 51 C-15.66 51 -16.32 51 -17 51 C-17.33 48.36 -17.66 45.72 -18 43 C-18.66 43 -19.32 43 -20 43 C-20.33344831 36.21988428 -19.73816984 29.70779809 -18.8125 23 C-18.71155029 22.15074951 -18.61060059 21.30149902 -18.5065918 20.42651367 C-18.1694677 18.16712301 -17.81093584 16.13592352 -17 14 C-14.6796875 12.53125 -14.6796875 12.53125 -12 12 C-10.81857422 11.61328125 -10.81857422 11.61328125 -9.61328125 11.21875 C-8.07230761 10.73735925 -6.5306314 10.25821206 -4.98828125 9.78125 C-2.81301087 9.079364 -2.81301087 9.079364 -1 7 C-0.59952556 4.67724823 -0.2602896 2.34260643 0 0 Z " fill="#FCD0CE" transform="translate(477,155)"/>
<path d="M0 0 C1.15048828 0.00193359 1.15048828 0.00193359 2.32421875 0.00390625 C4.3125 0.4375 4.3125 0.4375 6.3125 3.4375 C6.3125 4.4275 6.3125 5.4175 6.3125 6.4375 C5.19875 6.89125 4.085 7.345 2.9375 7.8125 C-0.64949008 9.16215986 -0.64949008 9.16215986 -2.6875 11.4375 C-3.25338921 13.54106723 -3.71431203 15.67321014 -4.125 17.8125 C-4.24915283 18.45646729 -4.37330566 19.10043457 -4.5012207 19.76391602 C-6.16072453 28.61078815 -7.4122501 37.52883932 -8.6875 46.4375 C-11.125 46.0625 -11.125 46.0625 -13.6875 45.4375 C-17.54024798 37.73200404 -13.98386376 25.47251151 -12.5 17.4375 C-12.30341797 16.23738281 -12.10683594 15.03726563 -11.90429688 13.80078125 C-11.69482422 12.64964844 -11.48535156 11.49851563 -11.26953125 10.3125 C-11.08624268 9.27867187 -10.9029541 8.24484375 -10.71411133 7.1796875 C-8.85445069 2.21233714 -5.23670947 -0.13336272 0 0 Z " fill="#F89B93" transform="translate(129.6875,218.5625)"/>
<path d="M0 0 C1.91015625 0.359375 1.91015625 0.359375 4 1 C5.04644066 2.63790712 6.0398183 4.31008021 7 6 C7.886875 6.7425 8.77375 7.485 9.6875 8.25 C12.54088658 11.64321647 12.54867836 13.3570689 12.3046875 17.6484375 C11.75069367 21.92413345 10.94165411 26.11669179 9 30 C4.71 29.34 0.42 28.68 -4 28 C-3.40415903 18.4665445 -1.88505879 9.34230394 0 0 Z " fill="#FBD2CF" transform="translate(462,117)"/>
<path d="M0 0 C3.83264178 1.5056807 5.537762 3.76831262 8 7 C8.721875 7.598125 9.44375 8.19625 10.1875 8.8125 C12.78668327 11.94944533 13.33517972 15.03489524 13 19 C11.95441829 21.85954439 10.60171346 24.41526068 9 27 C9.56589844 27.71285156 10.13179688 28.42570312 10.71484375 29.16015625 C18 38.67311072 18 38.67311072 18 45 C17.01 45.66 16.02 46.32 15 47 C14.88785156 46.34515625 14.77570313 45.6903125 14.66015625 45.015625 C12.7883581 36.35397082 8.48791922 30.80103521 3 24 C1.60468049 22.18208372 0.22773422 20.3498233 -1.125 18.5 C-1.70507812 17.7265625 -2.28515625 16.953125 -2.8828125 16.15625 C-4 14 -4 14 -3.8046875 11.90625 C-3 10 -3 10 -1 7 C-0.60612212 4.67612053 -0.26513915 2.34206251 0 0 Z " fill="#F9CDCA" transform="translate(407,161)"/>
<path d="M0 0 C1.9375 0.34765625 1.9375 0.34765625 4 1 C4.68132451 2.66072849 5.34742127 4.327767 6 6 C7.96672915 7.1500831 7.96672915 7.1500831 10 8 C12.83941649 12.25912473 12.40297498 16.0015603 12 21 C11 24.625 11 24.625 10 27 C9.32453125 27.06058594 8.6490625 27.12117188 7.953125 27.18359375 C6.61507812 27.30927734 6.61507812 27.30927734 5.25 27.4375 C4.36828125 27.51871094 3.4865625 27.59992188 2.578125 27.68359375 C0.30224048 27.96290685 -1.78698816 28.42206661 -4 29 C-3.31349156 22.44817672 -2.43589612 15.94857133 -1.4375 9.4375 C-1.29892578 8.52419922 -1.16035156 7.61089844 -1.01757812 6.66992188 C-0.6799705 4.44636821 -0.3407537 2.22307332 0 0 Z " fill="#FCCECC" transform="translate(194,164)"/>
<path d="M0 0 C3.11892878 2.33919658 3.9356122 3.5993648 4.5625 7.5 C4.24289605 13.46226676 1.46371246 18.66088422 -1 24 C-1.50402344 25.17304688 -2.00804687 26.34609375 -2.52734375 27.5546875 C-3.03394531 28.71226562 -3.54054687 29.86984375 -4.0625 31.0625 C-4.76052734 32.65771484 -4.76052734 32.65771484 -5.47265625 34.28515625 C-7.06367223 37.11317699 -8.18880584 38.42402752 -11 40 C-15.81531263 40.53503474 -17.87846537 40.70095914 -22 38.125 C-24 36 -24 36 -24 34 C-23.39671875 33.87625 -22.7934375 33.7525 -22.171875 33.625 C-17.30649657 32.39944485 -17.30649657 32.39944485 -13.546875 29.265625 C-11.31024746 24.95928243 -10.40070132 20.80841586 -10 16 C-9.67 16 -9.34 16 -9 16 C-8.67 19.63 -8.34 23.26 -8 27 C-8.66 27 -9.32 27 -10 27 C-10 27.99 -10 28.98 -10 30 C-5.92091157 27.36615151 -4.33608254 25.20364502 -3.18847656 20.46484375 C-3.0437793 19.77519531 -2.89908203 19.08554688 -2.75 18.375 C-2.58725586 17.66730469 -2.42451172 16.95960938 -2.25683594 16.23046875 C-1.06595581 10.86050413 -0.264402 5.49956161 0 0 Z " fill="#F79A8F" transform="translate(254,228)"/>
<path d="M0 0 C0.99 0.33 1.98 0.66 3 1 C6.3600682 9.43924106 4.33557215 21.84776209 1 30 C-0.984375 32.33984375 -0.984375 32.33984375 -3 34 C-3.66 34 -4.32 34 -5 34 C-5 33.01 -5 32.02 -5 31 C-4.34 31 -3.68 31 -3 31 C-3.33 30.34 -3.66 29.68 -4 29 C-4.47102894 21.36494951 -3.99972573 14.37398864 -2 7 C-1.67 7 -1.34 7 -1 7 C-0.67 4.69 -0.34 2.38 0 0 Z " fill="#F8877E" transform="translate(249,224)"/>
<path d="M0 0 C0.66 0 1.32 0 2 0 C7.19462838 6.65561761 6.75780578 13.83155863 6 22 C4.528 27.472 4.528 27.472 2 30 C-0.625 30.125 -0.625 30.125 -3 30 C-3.625 27.6875 -3.625 27.6875 -4 25 C-3.01 23.515 -3.01 23.515 -2 22 C0.22190748 14.77194295 0.23175436 7.49339085 0 0 Z " fill="#F99991" transform="translate(154,218)"/>
<path d="M0 0 C4.08638667 3.10920725 6.41933779 4.99456965 8 10 C8.99 11.485 8.99 11.485 10 13 C10.55131965 21.68328446 10.55131965 21.68328446 8 25 C4.9120332 26.90081512 2.47788642 27.29636767 -1.125 27.3125 C-2.42824219 27.33763672 -2.42824219 27.33763672 -3.7578125 27.36328125 C-4.49773437 27.24339844 -5.23765625 27.12351563 -6 27 C-6.66 26.01 -7.32 25.02 -8 24 C-7.37351562 23.84144531 -6.74703125 23.68289062 -6.1015625 23.51953125 C-1.13028088 22.2298625 -1.13028088 22.2298625 2.5625 18.9375 C3.20188167 14.64450881 3.67900286 10.30765258 3 6 C2.03160246 4.96936611 1.03350548 3.96533229 0 3 C0 2.01 0 1.02 0 0 Z " fill="#F3A098" transform="translate(392,192)"/>
<path d="M0 0 C3 1 3 1 4.6875 3.25 C7.03187832 9.94822378 6.9625927 18.14304034 5 25 C2.10451959 27.20970874 0.66842255 28 -3 28 C-2.01 18.76 -1.02 9.52 0 0 Z " fill="#F29F98" transform="translate(220,207)"/>
<path d="M0 0 C0.40566938 7.03160253 -0.92476549 13.27968099 -3 20 C-4 21 -4 21 -7.0625 21.0625 C-8.031875 21.041875 -9.00125 21.02125 -10 21 C-9.53913252 13.83229781 -8.93275329 6.93517357 -7 0 C-4.3333581 -1.33332095 -2.83319697 -0.67102033 0 0 Z " fill="#F69D95" transform="translate(468,124)"/>
<path d="M0 0 C1.2375 0.12375 2.475 0.2475 3.75 0.375 C4.08 2.685 4.41 4.995 4.75 7.375 C4.13125 7.436875 3.5125 7.49875 2.875 7.5625 C0.50620163 8.19391092 0.50620163 8.19391092 -0.4375 10.75 C-0.705625 11.61625 -0.97375 12.4825 -1.25 13.375 C-1.58 14.365 -1.91 15.355 -2.25 16.375 C-4.56 16.375 -6.87 16.375 -9.25 16.375 C-8.60517477 0.06092159 -8.60517477 0.06092159 0 0 Z " fill="#F0A29C" transform="translate(338.25,181.625)"/>
<path d="M0 0 C1.98 0 3.96 0 6 0 C6.12109311 7.07721931 5.85373239 13.97195301 5 21 C2.36 21.66 -0.28 22.32 -3 23 C-2.2036893 15.30232994 -1.12178733 7.65647079 0 0 Z " fill="#FA9A91" transform="translate(193,170)"/>
<path d="M0 0 C0.99 0 1.98 0 3 0 C6.27169255 5.22481883 6.16877227 8.57132548 5.1875 14.375 C5.02411133 15.47908203 5.02411133 15.47908203 4.85742188 16.60546875 C4.58847481 18.40624472 4.2965611 20.20356516 4 22 C1.5625 21.625 1.5625 21.625 -1 21 C-4.06813187 14.86373626 -1.88838257 6.25526725 0 0 Z " fill="#FA776C" transform="translate(183,232)"/>
<path d="M0 0 C-0.33 2.64 -0.66 5.28 -1 8 C-3.89558705 8.81788791 -6.55464087 9.18892672 -9.5625 9.25 C-10.32691406 9.27578125 -11.09132813 9.3015625 -11.87890625 9.328125 C-14 9 -14 9 -15.77734375 7.734375 C-17 6 -17 6 -17 2 C-15.10507994 1.66151348 -13.20901534 1.32943089 -11.3125 1 C-9.72888672 0.7215625 -9.72888672 0.7215625 -8.11328125 0.4375 C-5.35095938 0.04931926 -2.78257957 -0.08259976 0 0 Z " fill="#EFA69E" transform="translate(75,198)"/>
<path d="M0 0 C1.74609375 0.296875 1.74609375 0.296875 4 1 C4.99515625 1.24878906 5.9903125 1.49757812 7.015625 1.75390625 C8.61664063 2.15416016 8.61664063 2.15416016 10.25 2.5625 C11.86648438 2.96662109 11.86648438 2.96662109 13.515625 3.37890625 C14.33546875 3.58386719 15.1553125 3.78882813 16 4 C16 7 16 7 15 9 C14.29875 8.855625 13.5975 8.71125 12.875 8.5625 C11.92625 8.376875 10.9775 8.19125 10 8 C9.05125 7.71125 8.1025 7.4225 7.125 7.125 C2.61384137 6.94455365 0.32583865 9.15630955 -3 12 C-4.29539465 9.86640881 -5.03274515 8.52392246 -4.875 6 C-3.69233164 3.29675803 -2.33214682 1.79908469 0 0 Z " fill="#F79B94" transform="translate(372,230)"/>
<path d="M0 0 C1.66611905 -0.042721 3.33382885 -0.04063832 5 0 C6 1 6 1 6.0625 3.5625 C6.041875 4.366875 6.02125 5.17125 6 6 C4.865625 6.28875 3.73125 6.5775 2.5625 6.875 C1.83804687 7.060625 1.11359375 7.24625 0.3671875 7.4375 C-1.2218983 7.81510455 -2.82220577 8.14804991 -4.4296875 8.4375 C-9.23663939 9.19930609 -9.23663939 9.19930609 -12.9375 12.125 C-13.288125 12.74375 -13.63875 13.3625 -14 14 C-14.66 14 -15.32 14 -16 14 C-15.9071875 15.5778125 -15.9071875 15.5778125 -15.8125 17.1875 C-15.79943683 24.48980929 -17.42444035 32.59508446 -21 39 C-20.60404461 31.9137639 -19.82046832 24.88854156 -18.75 17.875 C-18.60437622 16.75557007 -18.60437622 16.75557007 -18.45581055 15.61352539 C-18.109375 13.4921875 -18.109375 13.4921875 -17 10 C-13.24714722 7.62045085 -9.32579787 7.69944127 -4.98828125 7.5390625 C-2.83196228 7.19123049 -2.83196228 7.19123049 -1.79296875 5.1484375 C-1.16373486 3.44361662 -0.57466073 1.72398218 0 0 Z " fill="#F0A79F" transform="translate(471,152)"/>
<path d="M0 0 C0.33 0.99 0.66 1.98 1 3 C-2.906373 9.45400756 -10.02817935 13.05657922 -16.96875 15.5078125 C-20.36607993 16.33101168 -23.51998571 16.18642934 -27 16 C-26.67 14.35 -26.34 12.7 -26 11 C-24.64455078 10.94392578 -24.64455078 10.94392578 -23.26171875 10.88671875 C-22.08222656 10.82097656 -20.90273438 10.75523437 -19.6875 10.6875 C-18.51574219 10.62949219 -17.34398437 10.57148438 -16.13671875 10.51171875 C-12.75658607 9.96028988 -12.13736349 9.48292525 -10 7 C-8.824375 6.690625 -7.64875 6.38125 -6.4375 6.0625 C-2.93792017 5.37694553 -2.93792017 5.37694553 -1.625 2.9375 C-1.315625 1.9784375 -1.315625 1.9784375 -1 1 C-0.67 0.67 -0.34 0.34 0 0 Z " fill="#FBCDC9" transform="translate(363,211)"/>
<path d="M0 0 C4.84688192 0.78175515 9.3766367 2.39844278 14 4 C14 5.32 14 6.64 14 8 C7.375 7.25 7.375 7.25 4 5 C3.7525 5.598125 3.505 6.19625 3.25 6.8125 C1.83629988 9.28647521 0.34944617 10.43370255 -2 12 C-2.103125 11.360625 -2.20625 10.72125 -2.3125 10.0625 C-2.539375 9.381875 -2.76625 8.70125 -3 8 C-3.99 7.67 -4.98 7.34 -6 7 C-4.02 4.69 -2.04 2.38 0 0 Z " fill="#F99A93" transform="translate(316,239)"/>
<path d="M0 0 C2.375 0.3125 2.375 0.3125 3.375 1.3125 C3.66825908 4.61166459 3.82836519 6.61184471 2 9.4375 C1.46375 10.05625 0.9275 10.675 0.375 11.3125 C-0.32080267 12.63086295 -0.99724433 13.96041086 -1.625 15.3125 C-2.49449317 14.24142883 -3.34514205 13.15504056 -4.1875 12.0625 C-4.66316406 11.45921875 -5.13882812 10.8559375 -5.62890625 10.234375 C-6.625 8.3125 -6.625 8.3125 -6.35546875 6.21875 C-4.98019769 2.62980733 -4.00150791 0.47636999 0 0 Z " fill="#F79A93" transform="translate(409.625,166.6875)"/>
<path d="M0 0 C0.33 0 0.66 0 1 0 C1.268125 1.2375 1.53625 2.475 1.8125 3.75 C2.47398327 6.48700688 2.87831417 7.85127288 4.6875 10.0625 C6 12 6 12 5.9375 15.5625 C5 19 5 19 3.125 20.9375 C1 22 1 22 -2 22 C-2.10541952 16.93327435 -1.72702304 12.0681519 -1 7.0625 C-0.90460938 6.37865234 -0.80921875 5.69480469 -0.7109375 4.99023438 C-0.47820863 3.32622293 -0.23971452 1.66301947 0 0 Z " fill="#F9B0AA" transform="translate(189,232)"/>
<path d="M0 0 C3.11892878 2.33919658 3.9356122 3.5993648 4.5625 7.5 C4.20473849 14.82035094 0.56700169 22.37495393 -4 28 C-3.56763201 21.70790798 -2.76571274 16.06963755 -1 10 C-0.55852598 6.67422907 -0.25573796 3.34478337 0 0 Z " fill="#FCAFAA" transform="translate(254,228)"/>
<path d="M0 0 C-0.92543709 1.34173403 -1.86577405 2.67320159 -2.8125 4 C-3.59560547 5.11375 -3.59560547 5.11375 -4.39453125 6.25 C-5.18923828 7.11625 -5.18923828 7.11625 -6 8 C-6.99 8 -7.98 8 -9 8 C-9 8.99 -9 9.98 -9 11 C-12 13 -12 13 -14.1875 12.625 C-14.785625 12.41875 -15.38375 12.2125 -16 12 C-16 8.30070486 -15.18997036 6.95391351 -13 4 C-10.37109375 2.3828125 -10.37109375 2.3828125 -7.4375 1.125 C-6.46683594 0.69445312 -5.49617188 0.26390625 -4.49609375 -0.1796875 C-2 -1 -2 -1 0 0 Z " fill="#FC978D" transform="translate(437,223)"/>
<path d="M0 0 C0.33 0 0.66 0 1 0 C1.10957031 0.62648437 1.21914062 1.25296875 1.33203125 1.8984375 C1.49058594 2.71570313 1.64914063 3.53296875 1.8125 4.375 C2.03873047 5.59316406 2.03873047 5.59316406 2.26953125 6.8359375 C2.87544942 9.35820641 2.87544942 9.35820641 6 11 C5.16531605 18.3452188 5.16531605 18.3452188 2 21 C-0.75426108 21.33747863 -3.2068719 21.18315594 -6 21 C-4.68 20.67 -3.36 20.34 -2 20 C-1.93941406 19.31035156 -1.87882812 18.62070312 -1.81640625 17.91015625 C-1.28321783 11.93024304 -0.68444907 5.96448472 0 0 Z " fill="#FBD2CE" transform="translate(123,245)"/>
<path d="M0 0 C-0.09731453 2.91943603 -0.17765617 5.23586364 -1 8 C-3.8125 10.3125 -3.8125 10.3125 -7 12 C-8.3461336 12.98270144 -9.68226107 13.9795384 -11 15 C-10.65358932 5.92404007 -10.65358932 5.92404007 -8.1875 2.4375 C-5.3873099 0.59737507 -3.32023531 0 0 0 Z " fill="#FDCBC6" transform="translate(136,225)"/>
<path d="M0 0 C1.65 0.33 3.3 0.66 5 1 C6.09321611 5.50951645 7.13999677 10.72000646 5 15 C2.5625 14.625 2.5625 14.625 0 14 C-1.41778293 11.16443413 -0.86257622 9.0091294 -0.5625 5.875 C-0.46066406 4.77929688 -0.35882813 3.68359375 -0.25390625 2.5546875 C-0.17011719 1.71164063 -0.08632813 0.86859375 0 0 Z " fill="#F08981" transform="translate(449,191)"/>
<path d="M0 0 C1.15518918 0.90484792 2.29885406 1.8244206 3.4375 2.75 C4.07558594 3.26046875 4.71367187 3.7709375 5.37109375 4.296875 C8.5419884 7.61224686 8.16869475 11.47483084 8.0859375 15.90234375 C7.95714424 19.04607013 7.73590918 21.93371177 7 25 C4.953125 26.1953125 4.953125 26.1953125 3 27 C3.01571045 26.42032471 3.0314209 25.84064941 3.04760742 25.2434082 C3.11022791 22.59987261 3.14907518 19.95649345 3.1875 17.3125 C3.21263672 16.40048828 3.23777344 15.48847656 3.26367188 14.54882812 C3.31937174 9.44300687 3.17713929 6.22784677 0 2 C0 1.34 0 0.68 0 0 Z " fill="#FBCFCA" transform="translate(156,218)"/>
<path d="M0 0 C4.81827959 3.38581809 7.05351354 6.73031952 8.6875 12.375 C9.56871436 19.77720059 8.68323065 25.10026405 6 32 C5.67 32 5.34 32 5 32 C4.875 26.25 4.875 26.25 6 24 C5.91161539 21.62216895 5.75653579 19.24654854 5.5625 16.875 C5.40974609 14.95300781 5.40974609 14.95300781 5.25390625 12.9921875 C5.17011719 12.00476563 5.08632813 11.01734375 5 10 C4.34 10 3.68 10 3 10 C2.49596232 8.70990357 1.99690074 7.41786211 1.5 6.125 C1.2215625 5.40570313 0.943125 4.68640625 0.65625 3.9453125 C0 2 0 2 0 0 Z " fill="#F9DAD9" transform="translate(303,158)"/>
<path d="M0 0 C1.216875 0.33 2.43375 0.66 3.6875 1 C12.51791784 2.94993454 21.38475236 2.70282279 30 0 C29 1.9375 29 1.9375 27 4 C21.35412193 5.1681127 15.74906667 5.11977222 10 5 C10 5.66 10 6.32 10 7 C6.12697862 5.85569823 2.99736561 4.76679902 0 2 C0 1.34 0 0.68 0 0 Z " fill="#F09D95" transform="translate(106,278)"/>
<path d="M0 0 C2.9719385 1.12451727 5.33440687 2.22293791 8 4 C10.27912938 4.45394552 10.27912938 4.45394552 12.6875 4.625 C13.89986328 4.73714844 13.89986328 4.73714844 15.13671875 4.8515625 C15.75160156 4.90054687 16.36648438 4.94953125 17 5 C17 5.66 17 6.32 17 7 C20.3 7 23.6 7 27 7 C22.10063416 10.26624389 16.72569092 9.54755722 11 9 C6.47487007 7.70610659 3.7735732 6.06366315 1 2.25 C0.67 1.5075 0.34 0.765 0 0 Z " fill="#FBD6D6" transform="translate(284,256)"/>
<path d="M0 0 C2.31 0.33 4.62 0.66 7 1 C7 1.66 7 2.32 7 3 C6.34 3 5.68 3 5 3 C4.566875 3.8971875 4.566875 3.8971875 4.125 4.8125 C3 7 3 7 1 10 C0.67 10.99 0.34 11.98 0 13 C-1.32 13 -2.64 13 -4 13 C-3.40546697 3.40546697 -3.40546697 3.40546697 0 0 Z " fill="#FB9790" transform="translate(335,184)"/>
<path d="M0 0 C2.4375 0.375 2.4375 0.375 5 1 C5.33 1.66 5.66 2.32 6 3 C8.02463255 3.65213292 8.02463255 3.65213292 10 4 C10 4.66 10 5.32 10 6 C9.01 6 8.02 6 7 6 C7 7.98 7 9.96 7 12 C2.4137931 10.55172414 2.4137931 10.55172414 0.6875 8.25 C-0.17450101 5.42890579 -0.13329111 2.93240449 0 0 Z " fill="#F38E87" transform="translate(325,214)"/>
<path d="M0 0 C0.66796875 1.71484375 0.66796875 1.71484375 1 4 C-0.07421875 6.25390625 -0.07421875 6.25390625 -1.6875 8.5625 C-2.20699219 9.32691406 -2.72648437 10.09132812 -3.26171875 10.87890625 C-6.75985613 15.14741996 -10.85681712 17.10514315 -16 19 C-18.9375 19.1875 -18.9375 19.1875 -21 19 C-12 13 -12 13 -9 13 C-8.67 12.01 -8.34 11.02 -8 10 C-7.34 10 -6.68 10 -6 10 C-5.62875 9.195625 -5.62875 9.195625 -5.25 8.375 C-3.70303025 5.43575748 -1.86985631 2.74245592 0 0 Z " fill="#F5B7AD" transform="translate(483,203)"/>
<path d="M0 0 C0.66 0 1.32 0 2 0 C5.84361434 5.68854922 4.95342799 10.54425869 4 17 C3.01 17.33 2.02 17.66 1 18 C-0.2062252 14.38132441 -0.10816918 11.07493749 -0.0625 7.3125 C-0.05798828 6.61060547 -0.05347656 5.90871094 -0.04882812 5.18554688 C-0.03706927 3.45699462 -0.01913454 1.72848635 0 0 Z " fill="#F99A92" transform="translate(221,208)"/>
<path d="M0 0 C0.04241723 2.33294775 0.04092937 4.66702567 0 7 C-1.66684015 8.66684015 -3.65643069 8.21072764 -5.9375 8.25 C-6.83339844 8.27578125 -7.72929687 8.3015625 -8.65234375 8.328125 C-9.42707031 8.21984375 -10.20179688 8.1115625 -11 8 C-11.66 7.01 -12.32 6.02 -13 5 C-12.37351562 4.72285156 -11.74703125 4.44570312 -11.1015625 4.16015625 C-10.28429687 3.79792969 -9.46703125 3.43570313 -8.625 3.0625 C-7.81289063 2.70285156 -7.00078125 2.34320313 -6.1640625 1.97265625 C-1.7751004 0 -1.7751004 0 0 0 Z " fill="#F18C84" transform="translate(397,211)"/>
<path d="M0 0 C1.98 0 3.96 0 6 0 C6 3.63 6 7.26 6 11 C5.67 11 5.34 11 5 11 C4.8046875 8.94921875 4.609375 6.8984375 4.4140625 4.84765625 C4.27742187 4.23792969 4.14078125 3.62820312 4 3 C3.34 2.67 2.68 2.34 2 2 C1.11722245 6.51815281 0.89410497 10.77512694 0.9375 15.375 C0.94652344 16.62023437 0.95554688 17.86546875 0.96484375 19.1484375 C0.97644531 20.08945313 0.98804688 21.03046875 1 22 C-0.32 22.33 -1.64 22.66 -3 23 C-2.2036893 15.30232994 -1.12178733 7.65647079 0 0 Z " fill="#F2A099" transform="translate(193,170)"/>
<path d="M0 0 C0.99 0 1.98 0 3 0 C3.66 1.32 4.32 2.64 5 4 C4.01 4 3.02 4 2 4 C0.61773984 6.76452033 0.90474613 9.0461363 0.9375 12.125 C0.95103516 13.76855469 0.95103516 13.76855469 0.96484375 15.4453125 C0.97644531 16.28835937 0.98804688 17.13140625 1 18 C1.99 17.34 2.98 16.68 4 16 C4 17.98 4 19.96 4 22 C1.5625 21.625 1.5625 21.625 -1 21 C-4.06813187 14.86373626 -1.88838257 6.25526725 0 0 Z " fill="#EF847B" transform="translate(183,232)"/>
<path d="M0 0 C-0.08774359 5.35235928 -0.08774359 5.35235928 -1 8 C-4.4375 9.875 -4.4375 9.875 -8 11 C-8.66 11.66 -9.32 12.32 -10 13 C-9.74483901 7.76919965 -7.85862875 5.13740322 -4.5703125 1.3203125 C-3 0 -3 0 0 0 Z " fill="#FACBC6" transform="translate(201,214)"/>
<path d="M0 0 C7.01219512 5.48780488 7.01219512 5.48780488 8 9 C7.86983146 13.94640453 5.17982793 16.49403587 2 20 C2 18.17042279 2.01863393 16.34056595 2.0703125 14.51171875 C2.17210438 9.25489523 2.12706942 4.91884803 0 0 Z " fill="#FCD8D3" transform="translate(365,183)"/>
<path d="M0 0 C2.04119788 1.61594832 4.04072937 3.2856382 6 5 C6 5.66 6 6.32 6 7 C7.32 7.66 8.64 8.32 10 9 C10.05451714 11.04136395 10.09302485 13.08315856 10.125 15.125 C10.14820313 16.26195312 10.17140625 17.39890625 10.1953125 18.5703125 C9.99672109 22.05757767 9.2524801 24.7553862 8 28 C6.87650285 24.62950855 7.00251556 22.22730043 7.125 18.6875 C7.1828559 13.50361133 6.92879004 10.27115215 4 6 C3.01 6 2.02 6 1 6 C0.67 4.02 0.34 2.04 0 0 Z " fill="#F9CECA" transform="translate(218,202)"/>
<path d="M0 0 C1.36081235 2.7216247 0.7900119 4.27901748 0.29296875 7.26953125 C0.11830078 8.32333984 -0.05636719 9.37714844 -0.23632812 10.46289062 C-0.42646484 11.56826172 -0.61660156 12.67363281 -0.8125 13.8125 C-0.99103516 14.90626953 -1.16957031 16.00003906 -1.35351562 17.12695312 C-2.17893428 22.01688818 -3.01749225 26.43030144 -5 31 C-6.26481843 27.33915229 -5.77279376 24.46333897 -5.125 20.6875 C-4.53005101 17.16114673 -3.9638442 13.67976288 -3.5625 10.125 C-2.88786122 6.37700676 -1.61528381 3.44125681 0 0 Z " fill="#FDE3D3" transform="translate(247,225)"/>
<path d="M0 0 C0 0.99 0 1.98 0 3 C-2.91824244 4.66674321 -4.97594379 5.2432008 -8.328125 5.1953125 C-9.12734375 5.18886719 -9.9265625 5.18242187 -10.75 5.17578125 C-11.575 5.15902344 -12.4 5.14226562 -13.25 5.125 C-14.09046875 5.11597656 -14.9309375 5.10695313 -15.796875 5.09765625 C-17.86470604 5.07415817 -19.93238995 5.03828908 -22 5 C-22 5.66 -22 6.32 -22 7 C-25.24271506 6.4409112 -26.93057424 5.5867822 -29 3 C-29 2.34 -29 1.68 -29 1 C-27.9996875 1.32355469 -26.999375 1.64710938 -25.96875 1.98046875 C-18.76621167 4.02927933 -9.53396 4.50813509 -2.5625 1.5 C-1.716875 1.005 -0.87125 0.51 0 0 Z " fill="#EEA59D" transform="translate(68,290)"/>
<path d="M0 0 C-0.66 0 -1.32 0 -2 0 C-2 0.99 -2 1.98 -2 3 C0.97 2.01 3.94 1.02 7 0 C7.33 0.66 7.66 1.32 8 2 C5.33955924 4.66044076 3.88515098 5.012761 0.0625 5.4375 C-4.01153313 5.29281471 -6.17181581 4.0049457 -9 1 C-9 0.34 -9 -0.32 -9 -1 C-5.22102349 -2.0497157 -3.35080929 -2.10976881 0 0 Z " fill="#F79E9B" transform="translate(239,263)"/>
<path d="M0 0 C0.33 0 0.66 0 1 0 C1.32136655 4.60625394 0.91033076 7.33513904 -2 11 C-2.99 11 -3.98 11 -5 11 C-5 11.66 -5 12.32 -5 13 C-7.97 13 -10.94 13 -14 13 C-14 12.67 -14 12.34 -14 12 C-11.69 12 -9.38 12 -7 12 C-6.9175 11.2575 -6.835 10.515 -6.75 9.75 C-5.85190201 6.45697405 -4.61583926 5.14023212 -2 3 C-1.34 3 -0.68 3 0 3 C0 2.01 0 1.02 0 0 Z " fill="#FBD1C9" transform="translate(343,186)"/>
<path d="M0 0 C2.31 0 4.62 0 7 0 C7.625 1.8125 7.625 1.8125 8 4 C7.01 5.485 7.01 5.485 6 7 C2.375 7.6875 2.375 7.6875 -1 8 C-0.67 5.36 -0.34 2.72 0 0 Z " fill="#F6B9B3" transform="translate(98,183)"/>
<path d="M0 0 C0.33 0 0.66 0 1 0 C1 1.98 1 3.96 1 6 C1.66 6 2.32 6 3 6 C4.4783226 8.95664519 4.06032783 11.74229737 4 15 C1.03 15 -1.94 15 -5 15 C-4.01 14.67 -3.02 14.34 -2 14 C-1.34 9.38 -0.68 4.76 0 0 Z " fill="#F7B0A8" transform="translate(456,192)"/>
<path d="M0 0 C0.99 0.33 1.98 0.66 3 1 C-5.11211935 11.05059982 -5.11211935 11.05059982 -12 13 C-14.9375 13.1875 -14.9375 13.1875 -17 13 C-15.31364771 11.87576514 -13.62223327 10.75876694 -11.9140625 9.66796875 C-7.44368715 6.77671916 -3.58940691 3.93676887 0 0 Z " fill="#F5AEA5" transform="translate(314,238)"/>
<path d="M0 0 C4.62 0.99 9.24 1.98 14 3 C14 6 14 6 13 8 C10.23723823 7.47731534 7.6739124 6.89130413 5 6 C5 5.34 5 4.68 5 4 C4.360625 3.71125 3.72125 3.4225 3.0625 3.125 C1 2 1 2 0 0 Z " fill="#F18A83" transform="translate(374,231)"/>
<path d="M0 0 C-0.99 1.485 -0.99 1.485 -2 3 C-5.2578125 3.29296875 -5.2578125 3.29296875 -9.125 3.1875 C-11.04699219 3.14689453 -11.04699219 3.14689453 -13.0078125 3.10546875 C-13.99523437 3.07066406 -14.98265625 3.03585937 -16 3 C-16 2.01 -16 1.02 -16 0 C-10.39436958 -0.82622671 -5.57710648 -1.06795656 0 0 Z " fill="#FD968E" transform="translate(132,283)"/>
<path d="M0 0 C0.99 0.33 1.98 0.66 3 1 C2.65697965 6.98511371 2.17692157 11.75117306 -1 17 C-1.33 17 -1.66 17 -2 17 C-2 13.7 -2 10.4 -2 7 C-1.67 7 -1.34 7 -1 7 C-0.67 4.69 -0.34 2.38 0 0 Z " fill="#F6796E" transform="translate(249,224)"/>
<path d="M0 0 C1.58468677 0.45363171 3.16769924 0.91311452 4.75 1.375 C5.63171875 1.63023437 6.5134375 1.88546875 7.421875 2.1484375 C9.76080572 2.9209934 11.83442562 3.83625676 14 5 C13.34 5 12.68 5 12 5 C11.67 5.99 11.34 6.98 11 8 C7 6.66666667 3 5.33333333 -1 4 C-0.67 2.68 -0.34 1.36 0 0 Z " fill="#F28F89" transform="translate(439,220)"/>
<path d="M0 0 C2.375 -0.125 2.375 -0.125 5 0 C7 2 7 2 7.1953125 4.1640625 C7.17210937 4.97617188 7.14890625 5.78828125 7.125 6.625 C7.10695313 7.44226563 7.08890625 8.25953125 7.0703125 9.1015625 C7.03550781 10.04128906 7.03550781 10.04128906 7 11 C6.67 11 6.34 11 6 11 C6 9.35 6 7.7 6 6 C2.45481116 7.39759905 2.45481116 7.39759905 -1 9 C-0.67 6.03 -0.34 3.06 0 0 Z " fill="#F8BAB5" transform="translate(489,183)"/>
<path d="M0 0 C6.27 0 12.54 0 19 0 C18.67 0.66 18.34 1.32 18 2 C13.71 2 9.42 2 5 2 C4.67 3.65 4.34 5.3 4 7 C2.68 7 1.36 7 0 7 C-0.93423645 3.98968256 -1.04449911 3.13349732 0 0 Z " fill="#FAB3AD" transform="translate(332,220)"/>
<path d="M0 0 C2 3 2 3 2 7 C-0.97 7 -3.94 7 -7 7 C-7 5.35 -7 3.7 -7 2 C-4.69 1.34 -2.38 0.68 0 0 Z " fill="#FA9891" transform="translate(71,199)"/>
<path d="M0 0 C0.66 0.33 1.32 0.66 2 1 C1.67 4.63 1.34 8.26 1 12 C-0.32 11.67 -1.64 11.34 -3 11 C-3 7.7 -3 4.4 -3 1 C-2.01 0.67 -1.02 0.34 0 0 Z " fill="#FC978F" transform="translate(262,165)"/>
<path d="M0 0 C1.6256807 0.30893932 3.25052748 0.6222695 4.875 0.9375 C5.77992188 1.11152344 6.68484375 1.28554687 7.6171875 1.46484375 C10 2 10 2 12 3 C12 4.32 12 5.64 12 7 C7.58682597 6.74040153 5.48336872 6.41137763 2.0625 3.5 C0 1 0 1 0 0 Z " fill="#F28C85" transform="translate(318,240)"/>
<path d="M0 0 C0.66 0.33 1.32 0.66 2 1 C0.33333333 2.66666667 -1.33333333 4.33333333 -3 6 C-3.495 6.556875 -3.99 7.11375 -4.5 7.6875 C-8.2693351 10.98566821 -12.15929385 11.22514912 -17 11 C-16.4328125 10.73058594 -15.865625 10.46117187 -15.28125 10.18359375 C-12.90056637 8.94841029 -10.72462381 7.55954993 -8.5 6.0625 C-7.7471875 5.55847656 -6.994375 5.05445313 -6.21875 4.53515625 C-4.10488077 3.07256715 -2.04501265 1.55699827 0 0 Z " fill="#F6B6AE" transform="translate(371,229)"/>
<path d="M0 0 C1.8871875 0.0309375 1.8871875 0.0309375 3.8125 0.0625 C4.1425 0.7225 4.4725 1.3825 4.8125 2.0625 C4.20921875 2.07667969 3.6059375 2.09085938 2.984375 2.10546875 C-2.47626584 2.37528946 -2.47626584 2.37528946 -6.75 5.625 C-7.224375 6.429375 -7.69875 7.23375 -8.1875 8.0625 C-9.5075 7.4025 -10.8275 6.7425 -12.1875 6.0625 C-8.18978325 1.84869045 -5.85577596 -0.09599633 0 0 Z " fill="#F0A59B" transform="translate(272.1875,158.9375)"/>
<path d="M0 0 C0.78503906 -0.01675781 1.57007813 -0.03351563 2.37890625 -0.05078125 C3.39791016 0.12904297 3.39791016 0.12904297 4.4375 0.3125 C6.4375 3.3125 6.4375 3.3125 6.4375 6.3125 C5.4475 5.9825 4.4575 5.6525 3.4375 5.3125 C3.4375 4.6525 3.4375 3.9925 3.4375 3.3125 C-1.79425837 2.92968841 -4.94052694 4.09395293 -9.5625 6.3125 C-7.50825575 1.57193635 -5.14557339 0.02543117 0 0 Z " fill="#ECA49C" transform="translate(129.5625,218.6875)"/>
<path d="M0 0 C2.625 -0.375 2.625 -0.375 5 0 C6 1 6 1 6.0625 3.5625 C6.041875 4.366875 6.02125 5.17125 6 6 C2.625 6.625 2.625 6.625 -1 7 C-1.66 6.34 -2.32 5.68 -3 5 C-1.8125 2.5 -1.8125 2.5 0 0 Z " fill="#F7B8B4" transform="translate(471,152)"/>
<path d="M0 0 C4.62 0 9.24 0 14 0 C10.3558226 2.4294516 8.28758728 2.16179575 4 2 C4 2.66 4 3.32 4 4 C4.99 4 5.98 4 7 4 C7 4.66 7 5.32 7 6 C8.32 6.33 9.64 6.66 11 7 C6.94393835 6.53199289 3.53411321 6.12046792 0 4 C0 2.68 0 1.36 0 0 Z " fill="#F1A49F" transform="translate(282,251)"/>
<path d="M0 0 C0.33 0 0.66 0 1 0 C1.02685412 2.31243792 1.04632841 4.6249627 1.0625 6.9375 C1.07410156 8.22527344 1.08570312 9.51304687 1.09765625 10.83984375 C1 14 1 14 0 15 C-0.28221172 17.58022142 -0.44820197 20.16030185 -0.62109375 22.75 C-0.74613281 23.4925 -0.87117188 24.235 -1 25 C-1.66 25.33 -2.32 25.66 -3 26 C-2.45520982 17.24034738 -1.45892001 8.65437017 0 0 Z " fill="#EFA49C" transform="translate(92,221)"/>
<path d="M0 0 C0.99 0.66 1.98 1.32 3 2 C3.80169402 6.44075611 3.48314642 10.73845102 1.875 14.9375 C-0.47742567 17.52516824 -2.77431633 18.69600022 -6 20 C-6.66 20 -7.32 20 -8 20 C-8 19.34 -8 18.68 -8 18 C-5.35261084 16.5393715 -4.10551666 16 -1 16 C-0.855625 15.38125 -0.71125 14.7625 -0.5625 14.125 C0 12 0 12 1 10 C1.15348643 6.46981203 1.04145246 3.38472048 0 0 Z " fill="#FDE2D3" transform="translate(393,196)"/>
<path d="M0 0 C0.33 0 0.66 0 1 0 C2.45832441 8.22284123 2.45832441 8.22284123 0.5625 11.4375 C0.046875 11.953125 -0.46875 12.46875 -1 13 C-1 13.66 -1 14.32 -1 15 C0.32 15.66 1.64 16.32 3 17 C2 18 2 18 -0.5625 18.0625 C-1.366875 18.041875 -2.17125 18.02125 -3 18 C-3.625 15.6875 -3.625 15.6875 -4 13 C-3.34 12.01 -2.68 11.02 -2 10 C-1.56261304 8.28555111 -1.19151312 6.55332216 -0.875 4.8125 C-0.70742187 3.91144531 -0.53984375 3.01039063 -0.3671875 2.08203125 C-0.24601563 1.39496094 -0.12484375 0.70789063 0 0 Z " fill="#EFA49C" transform="translate(154,230)"/>
<path d="M0 0 C-8.68903246 4.18479137 -16.22639592 7.4072335 -26 7 C-26 6.67 -26 6.34 -26 6 C-25.04738281 5.81824219 -24.09476562 5.63648438 -23.11328125 5.44921875 C-21.23189453 5.07216797 -21.23189453 5.07216797 -19.3125 4.6875 C-17.45044922 4.32205078 -17.45044922 4.32205078 -15.55078125 3.94921875 C-12.16708697 3.04466681 -9.90475048 1.897499 -7 0 C-3.86650268 -1.04449911 -3.01031744 -0.93423645 0 0 Z " fill="#F5A09B" transform="translate(368,243)"/>
<path d="M0 0 C0.33 0 0.66 0 1 0 C1 2.31 1 4.62 1 7 C0.071875 7.433125 -0.85625 7.86625 -1.8125 8.3125 C-4.60350808 9.79009251 -6.08254484 10.60318105 -8 13 C-8.78798055 15.49443774 -8.78798055 15.49443774 -9.1875 18.1875 C-9.34605469 19.08855469 -9.50460938 19.98960937 -9.66796875 20.91796875 C-9.77753906 21.60503906 -9.88710937 22.29210937 -10 23 C-10.33 23 -10.66 23 -11 23 C-11.61671527 18.77109529 -11.85645425 15.38137783 -9.546875 11.65625 C-4.93940678 6.31313559 -4.93940678 6.31313559 -1 5 C-0.67 3.35 -0.34 1.7 0 0 Z " fill="#FCE2D8" transform="translate(135,228)"/>
<path d="M0 0 C0 1.32 0 2.64 0 4 C-0.66 4 -1.32 4 -2 4 C-2 4.66 -2 5.32 -2 6 C-4.97 5.505 -4.97 5.505 -8 5 C-8 4.01 -8 3.02 -8 2 C-8.66 1.67 -9.32 1.34 -10 1 C-6.56484998 0.37542727 -3.50935186 0 0 0 Z " fill="#FCCDC9" transform="translate(74,206)"/>
<path d="M0 0 C0.99 0 1.98 0 3 0 C3.02698189 1.62490954 3.04638757 3.24994633 3.0625 4.875 C3.07410156 5.77992188 3.08570313 6.68484375 3.09765625 7.6171875 C3 10 3 10 2 12 C1.01 11.67 0.02 11.34 -1 11 C-0.67 7.37 -0.34 3.74 0 0 Z " fill="#FB796D" transform="translate(451,192)"/>
<path d="M0 0 C0 2.64 0 5.28 0 8 C-0.99 7.67 -1.98 7.34 -3 7 C-2.67 5.35 -2.34 3.7 -2 2 C-4.31 2.33 -6.62 2.66 -9 3 C-9 3.99 -9 4.98 -9 6 C-9.66 6 -10.32 6 -11 6 C-10.67 4.35 -10.34 2.7 -10 1 C-6.59437148 0.22157062 -3.49234244 -0.09978121 0 0 Z " fill="#EDA79F" transform="translate(223,250)"/>
<path d="M0 0 C0 0.33 0 0.66 0 1 C-9.38187653 3.93183642 -18.21663908 4.13422294 -28 4 C-28 3.67 -28 3.34 -28 3 C-27.2265625 2.95101562 -26.453125 2.90203125 -25.65625 2.8515625 C-18.6270869 2.37047383 -18.6270869 2.37047383 -11.75 0.9375 C-7.59423014 -0.10144247 -4.25838826 -0.1520853 0 0 Z " fill="#EDA79E" transform="translate(360,240)"/>
<path d="M0 0 C1.875 0.3125 1.875 0.3125 4 1 C6.67927341 5.01891012 6.15601248 7.24161923 6 12 C5.67 12 5.34 12 5 12 C5 10.02 5 8.04 5 6 C3.35 6 1.7 6 0 6 C0 4.02 0 2.04 0 0 Z " fill="#F7B8B6" transform="translate(194,164)"/>
<path d="M0 0 C1.45823212 -0.0270043 2.91660675 -0.04639787 4.375 -0.0625 C5.18710938 -0.07410156 5.99921875 -0.08570313 6.8359375 -0.09765625 C9 0 9 0 11 1 C11 1.66 11 2.32 11 3 C11.99 3.33 12.98 3.66 14 4 C14 4.99 14 5.98 14 7 C9.31221719 5.35294118 9.31221719 5.35294118 7.5625 3.375 C5.94678764 1.66880497 5.94678764 1.66880497 2.8125 1.8125 C1.884375 1.874375 0.95625 1.93625 0 2 C0 1.34 0 0.68 0 0 Z " fill="#FADCD9" transform="translate(172,274)"/>
<path d="M0 0 C3.16115776 1.36983503 3.9927092 1.9890638 6 5 C6.265625 7.375 6.265625 7.375 6.25 10 C6.25515625 10.86625 6.2603125 11.7325 6.265625 12.625 C6 15 6 15 4 18 C4.01160156 17.31292969 4.02320313 16.62585938 4.03515625 15.91796875 C4.04417969 15.01691406 4.05320313 14.11585938 4.0625 13.1875 C4.07410156 12.29417969 4.08570313 11.40085938 4.09765625 10.48046875 C4.11009967 7.86586209 4.11009967 7.86586209 3 5 C2.34 5 1.68 5 1 5 C0.67 3.35 0.34 1.7 0 0 Z " fill="#FAD9D9" transform="translate(200,170)"/>
<path d="M0 0 C4.28223496 2.4469914 4.28223496 2.4469914 6 5 C6.46427725 10.46815432 6.06666211 15.40000683 3 20 C2.34 19.67 1.68 19.34 1 19 C1.66 18.01 2.32 17.02 3 16 C3.3539686 13.58995363 3.3539686 13.58995363 3.3125 11 C3.32925781 10.13375 3.34601563 9.2675 3.36328125 8.375 C2.92911057 5.53655083 2.04715603 4.90131642 0 3 C0 2.01 0 1.02 0 0 Z " fill="#E8A19C" transform="translate(392,192)"/>
<path d="M0 0 C-0.33 3.96 -0.66 7.92 -1 12 C-1.66 12 -2.32 12 -3 12 C-3 8.7 -3 5.4 -3 2 C-4.32 2.99 -5.64 3.98 -7 5 C-7 3.68 -7 2.36 -7 1 C-5 0 -5 0 0 0 Z " fill="#F69E98" transform="translate(104,190)"/>
<path d="M0 0 C1.875 0.3125 1.875 0.3125 4 1 C6 4 6 4 6 7 C3.69 7 1.38 7 -1 7 C-0.67 4.69 -0.34 2.38 0 0 Z " fill="#F4BAB7" transform="translate(462,117)"/>
<path d="M0 0 C5.94 0.33 11.88 0.66 18 1 C18 1.33 18 1.66 18 2 C16.25093341 2.19601608 14.50068154 2.38147403 12.75 2.5625 C11.77546875 2.66691406 10.8009375 2.77132812 9.796875 2.87890625 C7.2368648 2.98974468 5.41851841 2.77738092 3 2 C2.67 2.99 2.34 3.98 2 5 C1.34 4.34 0.68 3.68 0 3 C0 2.01 0 1.02 0 0 Z " fill="#FAD9D1" transform="translate(279,249)"/>
<path d="M0 0 C0.33 0 0.66 0 1 0 C1.3690205 12.66970387 1.3690205 12.66970387 -1 18 C-1.33 18 -1.66 18 -2 18 C-2.23268915 11.71739294 -1.40454548 6.11980533 0 0 Z " fill="#FDC6C1" transform="translate(96,240)"/>
<path d="M0 0 C1.98 0.99 1.98 0.99 4 2 C4.75 5.625 4.75 5.625 5 9 C4.01 9.66 3.02 10.32 2 11 C1.34 7.37 0.68 3.74 0 0 Z " fill="#EDA8A2" transform="translate(420,197)"/>
<path d="M0 0 C-6.83085645 2.44166784 -12.7515055 3.41640288 -20 3 C-20 2.67 -20 2.34 -20 2 C-17.41842632 1.46867611 -14.83538244 0.94965621 -12.25 0.4375 C-11.52039063 0.28603516 -10.79078125 0.13457031 -10.0390625 -0.02148438 C-6.33442927 -0.74557178 -3.60677678 -1.09817231 0 0 Z " fill="#F8DDDC" transform="translate(147,292)"/>
<path d="M0 0 C0.99 1.32 1.98 2.64 3 4 C2.21572648 5.64936913 1.42234741 7.29441127 0.625 8.9375 C0.18414062 9.85402344 -0.25671875 10.77054688 -0.7109375 11.71484375 C-2 14 -2 14 -4 15 C-3.690625 14.236875 -3.38125 13.47375 -3.0625 12.6875 C-1.81644229 9.53570696 -1 7.29057239 -1 3.875 C-1 1 -1 1 0 0 Z " fill="#FDE9DC" transform="translate(483,194)"/>
<path d="M0 0 C1.93271959 3.59593645 2.40470865 5.87197177 2 10 C1.15097431 12.43910849 0.12120459 14.66415709 -1 17 C-2.26237731 13.21286807 -1.67558873 10.74348067 -1.0625 6.8125 C-0.86785156 5.54019531 -0.67320313 4.26789063 -0.47265625 2.95703125 C-0.31667969 1.98121094 -0.16070312 1.00539062 0 0 Z " fill="#FEC8C2" transform="translate(100,214)"/>
<path d="M0 0 C0.33 0 0.66 0 1 0 C1.33 3.63 1.66 7.26 2 11 C1.34 11 0.68 11 0 11 C0.33 12.32 0.66 13.64 1 15 C-0.32 15.33 -1.64 15.66 -3 16 C-2.01 10.72 -1.02 5.44 0 0 Z " fill="#F39188" transform="translate(244,244)"/>
<path d="M0 0 C0.66 0 1.32 0 2 0 C1.01 5.94 0.02 11.88 -1 18 C-1.33 18 -1.66 18 -2 18 C-2.3690205 5.33029613 -2.3690205 5.33029613 0 0 Z " fill="#FEE6D6" transform="translate(293,193)"/>
<path d="M0 0 C0.66 0.33 1.32 0.66 2 1 C0.98046875 2.48828125 0.98046875 2.48828125 -1 4 C-3.64996326 4.2172101 -6.05076558 4.28351554 -8.6875 4.1875 C-9.38939453 4.17396484 -10.09128906 4.16042969 -10.81445312 4.14648438 C-12.54329829 4.11120182 -14.27174765 4.05739583 -16 4 C-16 3.67 -16 3.34 -16 3 C-15.34773438 2.95101563 -14.69546875 2.90203125 -14.0234375 2.8515625 C-9.02602526 2.42405526 -4.75604552 1.66461593 0 0 Z " fill="#EEA79D" transform="translate(134,278)"/>
<path d="M0 0 C0 0.66 0 1.32 0 2 C-0.61875 2.0825 -1.2375 2.165 -1.875 2.25 C-2.57625 2.4975 -3.2775 2.745 -4 3 C-4.268125 3.639375 -4.53625 4.27875 -4.8125 4.9375 C-6 7 -6 7 -9.625 8.25 C-10.73875 8.4975 -11.8525 8.745 -13 9 C-4.5 0 -4.5 0 0 0 Z " fill="#EFA7A0" transform="translate(437,218)"/>
<path d="M0 0 C1.98 0.495 1.98 0.495 4 1 C4 2.32 4 3.64 4 5 C3.34 5 2.68 5 2 5 C2 6.32 2 7.64 2 9 C1.34 9 0.68 9 0 9 C-1.125 2.25 -1.125 2.25 0 0 Z " fill="#FB9891" transform="translate(397,207)"/>
<path d="M0 0 C3.45500783 2.66977878 4.05616352 5.86164003 5 10 C5 11.32 5 12.64 5 14 C4.01 13.67 3.02 13.34 2 13 C1.92652344 12.07767578 1.92652344 12.07767578 1.8515625 11.13671875 C1.77679688 10.32847656 1.70203125 9.52023438 1.625 8.6875 C1.55539062 7.88699219 1.48578125 7.08648437 1.4140625 6.26171875 C1.10435574 3.72775559 1.10435574 3.72775559 -1 1 C-0.67 0.67 -0.34 0.34 0 0 Z " fill="#FCE8D8" transform="translate(417,194)"/>
<path d="M0 0 C1.231394 2.46278801 1.07159196 4.2795055 1 7 C0.360625 7.268125 -0.27875 7.53625 -0.9375 7.8125 C-3.33131686 8.88667752 -3.33131686 8.88667752 -4 12 C-4.33 11.34 -4.66 10.68 -5 10 C-4.2578125 7.87109375 -4.2578125 7.87109375 -3.125 5.4375 C-2.75632812 4.63183594 -2.38765625 3.82617188 -2.0078125 2.99609375 C-1 1 -1 1 0 0 Z " fill="#F2A49B" transform="translate(489,191)"/>
<path d="M0 0 C0.66 0.33 1.32 0.66 2 1 C2.42589023 6.53657294 0.905247 10.89665983 -1 16 C-2.26823485 12.34606463 -1.75715321 9.50929974 -1.0625 5.75 C-0.86785156 4.67234375 -0.67320312 3.5946875 -0.47265625 2.484375 C-0.31667969 1.66453125 -0.16070312 0.8446875 0 0 Z " fill="#EEA49B" transform="translate(251,205)"/>
<path d="M0 0 C1.65 0 3.3 0 5 0 C5 2.31 5 4.62 5 7 C3.0625 6.3125 3.0625 6.3125 1 5 C0.25 2.375 0.25 2.375 0 0 Z " fill="#F6BCB8" transform="translate(58,200)"/>
<path d="M0 0 C1.10844919 3.32534757 0.84454356 5.62182575 0 9 C-1.65 8.67 -3.3 8.34 -5 8 C-4.34 7.67 -3.68 7.34 -3 7 C-2.34444881 4.47266765 -2.34444881 4.47266765 -2 2 C-1.34 2 -0.68 2 0 2 C0 1.34 0 0.68 0 0 Z " fill="#F4A29C" transform="translate(121,256)"/>
<path d="M0 0 C0.33 0 0.66 0 1 0 C0.85764543 1.72945653 0.71095618 3.45855654 0.5625 5.1875 C0.48128906 6.15042969 0.40007812 7.11335937 0.31640625 8.10546875 C0.02333849 10.78649602 -0.42703754 13.3662986 -1 16 C-1.33 16 -1.66 16 -2 16 C-2.33 13.03 -2.66 10.06 -3 7 C-2.34 7 -1.68 7 -1 7 C-0.67 4.69 -0.34 2.38 0 0 Z " fill="#FCE4D6" transform="translate(117,234)"/>
<path d="M0 0 C0.99 0.33 1.98 0.66 3 1 C3 1.99 3 2.98 3 4 C5.97 4.495 5.97 4.495 9 5 C9.33 4.34 9.66 3.68 10 3 C10 4.32 10 5.64 10 7 C3.51020408 6.51020408 3.51020408 6.51020408 1.0625 4.0625 C0 2 0 2 0 0 Z " fill="#F7DBD8" transform="translate(63,207)"/>
<path d="M0 0 C1.32 0.66 2.64 1.32 4 2 C3.67 2.66 3.34 3.32 3 4 C2.34 3.67 1.68 3.34 1 3 C1 7.62 1 12.24 1 17 C0.34 16.67 -0.32 16.34 -1 16 C-0.67 10.72 -0.34 5.44 0 0 Z " fill="#F9E0D1" transform="translate(361,179)"/>
<path d="M0 0 C2.99324263 1.0975223 3.84610901 1.67682892 5.25 4.625 C5.4975 5.40875 5.745 6.1925 6 7 C3.03 6.505 3.03 6.505 0 6 C0 4.02 0 2.04 0 0 Z " fill="#F5BEBA" transform="translate(407,161)"/>
<path d="M0 0 C0.66 0.33 1.32 0.66 2 1 C1.34 4.96 0.68 8.92 0 13 C-1.99789249 10.00316126 -2.74756206 8.5341312 -3 5 C-1.5625 2.1875 -1.5625 2.1875 0 0 Z " fill="#FDE9DB" transform="translate(453,161)"/>
<path d="M0 0 C1.32 0.66 2.64 1.32 4 2 C2.9171875 2.61875 2.9171875 2.61875 1.8125 3.25 C-0.97969862 4.98736803 -3.47012585 6.90381857 -6 9 C-6 8.01 -6 7.02 -6 6 C-5.34 6 -4.68 6 -4 6 C-3.71125 5.38125 -3.4225 4.7625 -3.125 4.125 C-2 2 -2 2 0 0 Z " fill="#FDE9DC" transform="translate(313,236)"/>
<path d="M0 0 C0.66 0.33 1.32 0.66 2 1 C-0.88406243 4.40843742 -2.3708265 5.86591384 -6.8125 6.8125 C-8.3903125 6.9053125 -8.3903125 6.9053125 -10 7 C-10.33 5.68 -10.66 4.36 -11 3 C-9.6696875 3.37125 -9.6696875 3.37125 -8.3125 3.75 C-4.8829449 4.35289652 -4.8829449 4.35289652 -2.125 2.0625 C-1.42375 1.381875 -0.7225 0.70125 0 0 Z " fill="#FCE9DC" transform="translate(301,230)"/>
<path d="M0 0 C0.99 0 1.98 0 3 0 C3 0.66 3 1.32 3 2 C2.34 2 1.68 2 1 2 C1.33 2.66 1.66 3.32 2 4 C2.06996014 5.70702735 2.08440154 7.41668003 2.0625 9.125 C2.05347656 10.03507813 2.04445312 10.94515625 2.03515625 11.8828125 C2.02355469 12.58148438 2.01195312 13.28015625 2 14 C1.67 14 1.34 14 1 14 C1 11.36 1 8.72 1 6 C0.34 6 -0.32 6 -1 6 C-1.042721 4.33388095 -1.04063832 2.66617115 -1 1 C-0.67 0.67 -0.34 0.34 0 0 Z " fill="#FBD9CE" transform="translate(153,216)"/>
<path d="M0 0 C0.33 0.99 0.66 1.98 1 3 C-0.43359375 5.04296875 -0.43359375 5.04296875 -2.4375 7.1875 C-3.09621094 7.90292969 -3.75492187 8.61835938 -4.43359375 9.35546875 C-5.20896484 10.16951172 -5.20896484 10.16951172 -6 11 C-7.32 10.67 -8.64 10.34 -10 10 C-6.25 7 -6.25 7 -4 7 C-3.71125 6.401875 -3.4225 5.80375 -3.125 5.1875 C-2 3 -2 3 0 0 Z " fill="#EFA49C" transform="translate(359,201)"/>
<path d="M0 0 C2.01822917 0.06510417 4.03645833 0.13020833 6.0546875 0.1953125 C5.7246875 0.8553125 5.3946875 1.5153125 5.0546875 2.1953125 C2.0846875 1.7003125 2.0846875 1.7003125 -0.9453125 1.1953125 C-1.409375 2.3709375 -1.409375 2.3709375 -1.8828125 3.5703125 C-2.9453125 6.1953125 -2.9453125 6.1953125 -3.9453125 8.1953125 C-4.6053125 8.1953125 -5.2653125 8.1953125 -5.9453125 8.1953125 C-3.55986581 0.35741625 -3.55986581 0.35741625 0 0 Z " fill="#F5BFB7" transform="translate(335.9453125,181.8046875)"/>
<path d="M0 0 C2.475 0.495 2.475 0.495 5 1 C5.26785714 9.03571429 5.26785714 9.03571429 3 13 C2.95101563 12.14535156 2.90203125 11.29070312 2.8515625 10.41015625 C2.77679688 9.30542969 2.70203125 8.20070312 2.625 7.0625 C2.55539062 5.96035156 2.48578125 4.85820313 2.4140625 3.72265625 C2.27742188 2.82417969 2.14078125 1.92570312 2 1 C1.34 0.67 0.68 0.34 0 0 Z " fill="#F6A19C" transform="translate(463,123)"/>
<path d="M0 0 C4.38889325 0.66498383 7.9811485 2.18757677 12 4 C10.02 4.99 10.02 4.99 8 6 C7.4225 5.505 6.845 5.01 6.25 4.5 C3.89599371 2.63019987 3.89599371 2.63019987 0 3 C0 2.01 0 1.02 0 0 Z " fill="#EEA39E" transform="translate(168,265)"/>
<path d="M0 0 C0.33 0 0.66 0 1 0 C1.66 3.63 2.32 7.26 3 11 C1.68 11.99 0.36 12.98 -1 14 C-0.67 9.38 -0.34 4.76 0 0 Z " fill="#FDC9C3" transform="translate(123,245)"/>
<path d="M0 0 C0.66 0 1.32 0 2 0 C4.91360308 4.77830905 5.19876651 7.55106131 4 13 C3.67 13 3.34 13 3 13 C3 10.03 3 7.06 3 4 C2.01 3.67 1.02 3.34 0 3 C0 2.01 0 1.02 0 0 Z " fill="#F9DFDF" transform="translate(415,169)"/>
<path d="M0 0 C0.66 0.33 1.32 0.66 2 1 C0.89210592 4.32368224 0.51563783 4.61563093 -2.375 6.25 C-3.28378906 6.78367187 -3.28378906 6.78367187 -4.2109375 7.328125 C-6 8 -6 8 -9 7 C-8.34 7 -7.68 7 -7 7 C-7 6.34 -7 5.68 -7 5 C-5.03277992 3.61876037 -3.03131672 2.28511874 -1 1 C-0.67 0.67 -0.34 0.34 0 0 Z " fill="#F7A9A4" transform="translate(209,259)"/>
<path d="M0 0 C1.44010481 0.25662245 2.8770687 0.53090821 4.3125 0.8125 C5.11300781 0.96332031 5.91351563 1.11414063 6.73828125 1.26953125 C9.23445587 2.07572236 10.32422106 3.02052002 12 5 C3.42857143 4.14285714 3.42857143 4.14285714 0 2 C0 1.34 0 0.68 0 0 Z " fill="#FDE0D0" transform="translate(375,229)"/>
<path d="M0 0 C0.66 0 1.32 0 2 0 C5 3.46153846 5 3.46153846 5 6 C4.01 6.495 4.01 6.495 3 7 C2.34 8.32 1.68 9.64 1 11 C0.67 7.37 0.34 3.74 0 0 Z " fill="#EDA09C" transform="translate(154,218)"/>
<path d="M0 0 C0.33 0 0.66 0 1 0 C1.41176754 3.60296594 1.1535853 4.78402067 -1 7.8125 C-1.66 8.534375 -2.32 9.25625 -3 10 C-3.75 7.8125 -3.75 7.8125 -4 5 C-2.125 2.1875 -2.125 2.1875 0 0 Z " fill="#EDA69C" transform="translate(407,167)"/>
<path d="M0 0 C0.71484375 1.765625 0.71484375 1.765625 1 4 C-0.43359375 5.921875 -0.43359375 5.921875 -2.4375 7.75 C-3.09621094 8.36359375 -3.75492187 8.9771875 -4.43359375 9.609375 C-5.20896484 10.29773438 -5.20896484 10.29773438 -6 11 C-6.66 10.67 -7.32 10.34 -8 10 C-7.59007813 9.52949219 -7.18015625 9.05898438 -6.7578125 8.57421875 C-6.21898438 7.95160156 -5.68015625 7.32898438 -5.125 6.6875 C-4.59132813 6.07261719 -4.05765625 5.45773437 -3.5078125 4.82421875 C-1.8359553 2.86501788 -1.8359553 2.86501788 0 0 Z " fill="#FEC3BE" transform="translate(87,283)"/>
<path d="M0 0 C3.1875 -0.3125 3.1875 -0.3125 6 0 C6.33 0.66 6.66 1.32 7 2 C6.278125 1.87625 5.55625 1.7525 4.8125 1.625 C1.54986264 2.06001831 1.1958004 2.55561151 -0.8125 5 C-1.534375 5.99 -2.25625 6.98 -3 8 C-3 4.3139451 -2.31141604 2.85074644 0 0 Z " fill="#F9DFDF" transform="translate(324,251)"/>
<path d="M0 0 C0.99 0.33 1.98 0.66 3 1 C0.63404067 3.61500768 -1.86049226 5.38999603 -5 7 C-5.66 6.67 -6.32 6.34 -7 6 C-5.62209707 3.24419414 -3.62850007 2.51138754 -1 1 C-0.67 0.67 -0.34 0.34 0 0 Z " fill="#FEE7DA" transform="translate(363,232)"/>
<path d="M0 0 C0.33 0 0.66 0 1 0 C1.08114106 1.77007714 1.13925505 3.54122098 1.1875 5.3125 C1.23970703 6.79169922 1.23970703 6.79169922 1.29296875 8.30078125 C1 11 1 11 -0.51171875 12.85546875 C-1.00285156 13.23316406 -1.49398438 13.61085937 -2 14 C-1.03644647 4.58997722 -1.03644647 4.58997722 0 0 Z " fill="#EEACA1" transform="translate(292,206)"/>
<path d="M0 0 C4.455 0.99 4.455 0.99 9 2 C8.01 2.66 7.02 3.32 6 4 C5.67 4.66 5.34 5.32 5 6 C3.2925002 4.71937515 1.62626404 3.38232443 0 2 C0 1.34 0 0.68 0 0 Z " fill="#F3C3C0" transform="translate(106,278)"/>
<path d="M0 0 C1 3 1 3 0.125 5.25 C-2 7 -2 7 -4.20703125 7.03125 C-6.49497502 6.7718296 -8.73945062 6.43599695 -11 6 C-11 5.67 -11 5.34 -11 5 C-10.37351563 4.89042969 -9.74703125 4.78085938 -9.1015625 4.66796875 C-7.87566406 4.43013672 -7.87566406 4.43013672 -6.625 4.1875 C-5.81289062 4.03667969 -5.00078125 3.88585937 -4.1640625 3.73046875 C-1.64179359 3.12455058 -1.64179359 3.12455058 0 0 Z " fill="#FCE4D6" transform="translate(194,249)"/>
<path d="M0 0 C0.99 0.33 1.98 0.66 3 1 C1.68 2.65 0.36 4.3 -1 6 C-2.32 5.67 -3.64 5.34 -5 5 C-3.35 3.35 -1.7 1.7 0 0 Z " fill="#F5B8B1" transform="translate(314,238)"/>
<path d="M0 0 C3.6875 0.3125 3.6875 0.3125 7 1 C6.67 1.66 6.34 2.32 6 3 C3.03 3 0.06 3 -3 3 C-2.01 2.01 -1.02 1.02 0 0 Z " fill="#FCE4D7" transform="translate(128,216)"/>
<path d="M0 0 C0.33 0 0.66 0 1 0 C1.28571429 8.57142857 1.28571429 8.57142857 -1 12 C-1.92470553 7.28400182 -2.22923777 4.32734391 0 0 Z " fill="#F4A19B" transform="translate(260,188)"/>
<path d="M0 0 C0.93423645 3.01031744 1.04449911 3.86650268 0 7 C-0.99 6.67 -1.98 6.34 -3 6 C-3 4.35 -3 2.7 -3 1 C-2.01 0.67 -1.02 0.34 0 0 Z " fill="#EDC0BB" transform="translate(434,165)"/>
<path d="M0 0 C2.475 0.495 2.475 0.495 5 1 C4.67 1.99 4.34 2.98 4 4 C3.01 4 2.02 4 1 4 C0.67 4.99 0.34 5.98 0 7 C0 4.69 0 2.38 0 0 Z " fill="#FBE6DC" transform="translate(430,162)"/>
<path d="M0 0 C-2.3129482 2.3129482 -3.47904875 2.49580975 -6.625 3.125 C-7.44226563 3.29257812 -8.25953125 3.46015625 -9.1015625 3.6328125 C-10.04128906 3.81457031 -10.04128906 3.81457031 -11 4 C-11 3.34 -11 2.68 -11 2 C-7.17010894 0.19769832 -4.21878192 -0.19622241 0 0 Z " fill="#FEE3D7" transform="translate(136,277)"/>
<path d="M0 0 C-0.33 0.66 -0.66 1.32 -1 2 C-3.06640625 2.6328125 -3.06640625 2.6328125 -5.5625 3.125 C-6.80193359 3.37636719 -6.80193359 3.37636719 -8.06640625 3.6328125 C-8.70449219 3.75398438 -9.34257812 3.87515625 -10 4 C-9.67 3.01 -9.34 2.02 -9 1 C-6.04335481 -0.4783226 -3.25770263 -0.06032783 0 0 Z " fill="#FCE5D7" transform="translate(168,259)"/>
<path d="M0 0 C2.46800047 1.15173355 4.04783565 2.04783565 6 4 C3.36 4.33 0.72 4.66 -2 5 C-1.34 3.35 -0.68 1.7 0 0 Z " fill="#FD948E" transform="translate(373,232)"/>
<path d="M0 0 C0.99 0.33 1.98 0.66 3 1 C0.64722731 3.72426311 -1.62496331 4.8141763 -5 6 C-3.63016497 2.83884224 -3.0109362 2.0072908 0 0 Z " fill="#F6BCB2" transform="translate(125,219)"/>
<path d="M0 0 C2.475 0.495 2.475 0.495 5 1 C4.67 1.66 4.34 2.32 4 3 C3.34 2.67 2.68 2.34 2 2 C2 3.98 2 5.96 2 8 C0 6 0 6 -0.125 2.875 C-0.08375 1.92625 -0.0425 0.9775 0 0 Z " fill="#ED9186" transform="translate(325,214)"/>
<path d="M0 0 C1.85776765 3.13498292 2.20140476 5.37471432 2 9 C1.67 8.34 1.34 7.68 1 7 C0.01 6.67 -0.98 6.34 -2 6 C-1.34 4.02 -0.68 2.04 0 0 Z " fill="#FBE9DC" transform="translate(218,204)"/>
<path d="M0 0 C0.33 0 0.66 0 1 0 C1 1.65 1 3.3 1 5 C1.66 5 2.32 5 3 5 C3 5.99 3 6.98 3 8 C1.68 8.33 0.36 8.66 -1 9 C-0.67 6.03 -0.34 3.06 0 0 Z " fill="#EEA6A0" transform="translate(191,184)"/>
<path d="M0 0 C2.25245881 2.68841859 3.88213958 4.64641875 5 8 C3.125 7.75 3.125 7.75 1 7 C-0.3125 5.125 -0.3125 5.125 -1 3 C-0.67 2.01 -0.34 1.02 0 0 Z " fill="#FBEAD9" transform="translate(402,173)"/>
<path d="M0 0 C2.97 0.495 2.97 0.495 6 1 C5.01 1.495 5.01 1.495 4 2 C3.67 2.99 3.34 3.98 3 5 C1.68 4.34 0.36 3.68 -1 3 C-0.67 2.01 -0.34 1.02 0 0 Z " fill="#F68883" transform="translate(447,223)"/>
<path d="M0 0 C0.66 0 1.32 0 2 0 C0.60667426 3.36720387 -0.9789286 4.9859524 -4 7 C-4.66 6.67 -5.32 6.34 -6 6 C-4.71034824 4.62437146 -3.37310707 3.29233607 -2 2 C-1.34 2 -0.68 2 0 2 C0 1.34 0 0.68 0 0 Z " fill="#FBAEA7" transform="translate(478,212)"/>
<path d="M0 0 C1.98 0.99 1.98 0.99 4 2 C4 2.66 4 3.32 4 4 C3.01 4 2.02 4 1 4 C1 6.31 1 8.62 1 11 C0.67 11 0.34 11 0 11 C0 7.37 0 3.74 0 0 Z " fill="#EEB9B2" transform="translate(299,155)"/>
<path d="M0 0 C2.31 0.66 4.62 1.32 7 2 C6.01 2.495 6.01 2.495 5 3 C4.67 3.99 4.34 4.98 4 6 C2.62437146 4.71034824 1.29233607 3.37310707 0 2 C0 1.34 0 0.68 0 0 Z " fill="#F0BDBB" transform="translate(39,291)"/>
<path d="M0 0 C0.99 0 1.98 0 3 0 C1.52307692 4.67692308 1.52307692 4.67692308 -1.125 6.3125 C-2.053125 6.6528125 -2.053125 6.6528125 -3 7 C-1.125 2.25 -1.125 2.25 0 0 Z " fill="#F6DAD7" transform="translate(252,267)"/>
<path d="M0 0 C4.455 0.99 4.455 0.99 9 2 C4.82091936 4.08954032 4.19589427 4.16552619 0 3 C0 2.01 0 1.02 0 0 Z " fill="#FCABA8" transform="translate(380,237)"/>
<path d="M0 0 C0.99 0.99 1.98 1.98 3 3 C3 3.99 3 4.98 3 6 C2.01 6.495 2.01 6.495 1 7 C0.34 7.99 -0.32 8.98 -1 10 C-0.67 6.7 -0.34 3.4 0 0 Z " fill="#FDC4C2" transform="translate(104,188)"/>
<path d="M0 0 C2.31 0 4.62 0 7 0 C6.34 1.32 5.68 2.64 5 4 C2.525 3.01 2.525 3.01 0 2 C0 1.34 0 0.68 0 0 Z " fill="#F4918D" transform="translate(176,270)"/>
<path d="M0 0 C4.95 0.99 4.95 0.99 10 2 C6.68756695 2.82810826 4.34023421 3.09278428 1 3 C0.67 2.01 0.34 1.02 0 0 Z " fill="#F7A39C" transform="translate(324,246)"/>
<path d="M0 0 C0 0.33 0 0.66 0 1 C-4.1196377 2.29243536 -7.66831683 3.26252625 -12 3 C-8.2391768 -0.7608232 -5.0273023 -0.25136512 0 0 Z " fill="#F3A096" transform="translate(360,240)"/>
<path d="M0 0 C0.33 0 0.66 0 1 0 C1.66 2.97 2.32 5.94 3 9 C1.68 8.34 0.36 7.68 -1 7 C-1.04254356 5.00045254 -1.04080783 2.99958364 -1 1 C-0.67 0.67 -0.34 0.34 0 0 Z " fill="#FDE9D7" transform="translate(324,214)"/>
<path d="M0 0 C0.99 0.33 1.98 0.66 3 1 C3 2.65 3 4.3 3 6 C2.01 6 1.02 6 0 6 C0 4.02 0 2.04 0 0 Z " fill="#FA766C" transform="translate(327,216)"/>
<path d="M0 0 C0.66 0.33 1.32 0.66 2 1 C2 2.65 2 4.3 2 6 C0.68 6.33 -0.64 6.66 -2 7 C-1.34 4.69 -0.68 2.38 0 0 Z " fill="#FDC4C0" transform="translate(492,201)"/>
<path d="M0 0 C0.66 0.33 1.32 0.66 2 1 C-0.475 4.465 -0.475 4.465 -3 8 C-3.33 6.68 -3.66 5.36 -4 4 C-2.0625 1.75 -2.0625 1.75 0 0 Z " fill="#FCE2D3" transform="translate(358,200)"/>
<path d="M0 0 C-2.90092502 1.93395001 -3.89674737 2.30131941 -7.1875 2.625 C-8.445625 2.74875 -9.70375 2.8725 -11 3 C-10 1 -10 1 -7.75 -0.1875 C-4.69751418 -1.08937081 -3.02265546 -0.86361585 0 0 Z " fill="#FEE6D9" transform="translate(468,158)"/>
</svg>
